<?xml version="1.0" encoding="UTF-8"?>
<svg id="Layer_2" data-name="Layer 2" xmlns="http://www.w3.org/2000/svg" viewBox="0 0 537.14 466.04">
  <defs>
    <style>
      .cls-1 {
        fill: #152988;
      }

      .cls-1, .cls-2, .cls-3, .cls-4 {
        stroke-width: 0px;
      }

      .cls-5 {
        letter-spacing: 3.64em;
      }

      .cls-2 {
        fill: #1c3e89;
      }

      .cls-6 {
        font-size: 67px;
      }

      .cls-6, .cls-3, .cls-7 {
        fill: #08ff3e;
      }

      .cls-6, .cls-7 {
        font-family: CourierNewPS-BoldMT, 'Courier New';
        font-weight: 700;
      }

      .cls-7 {
        font-size: 8.5px;
      }

      .cls-4 {
        fill: #363d96;
      }
    </style>
  </defs>
  <g id="CodeBlocks">
    <g id="BlockOGColor">
      <g>
        <path class="cls-4" d="m6.35,196.97c8.99,52.27,16.98,104.54,25.98,156.82,5.56,32.32,11.16,64.78,21.59,95.87,1.32,3.92,2.82,7.99,5.87,10.78,5.48,5.03,13.92,4.37,21.29,3.4,86.13-11.32,172.27-22.63,258.4-33.95,33.19-4.36,66.77-8.82,97.94-21.06,2.34-.92,4.77-1.97,6.28-3.97,1.86-2.47,1.9-5.83,1.74-8.91-1.39-26.25-8.78-65-11.08-91.18-2.88-32.73-10.92-63.61-16.74-102.43-6.8-45.34-25.94-88.52-28.84-134.27-73.86-1.44-145.52,22.88-218.55,34-43.24,6.58-87.27,10.57-129.79,20.85-8.8,2.13-31.43,6.66-35.73,14.63-5.39,10-3.16,30.3,1.08,55.67l.55,3.75Z"/>
        <path class="cls-4" d="m4.9,197.37c6.03,35.05,11.62,70.17,17.36,105.27,5.61,34.32,10.83,68.83,18.2,102.82,1.78,8.21,3.73,16.39,5.93,24.49s4.31,16.06,7.37,23.7c2.51,6.25,6.8,10.73,13.61,11.93s14.51-.35,21.55-1.27c35.36-4.64,70.71-9.29,106.07-13.93,35.36-4.64,70.71-9.29,106.07-13.93,17.16-2.25,34.33-4.46,51.47-6.78,16.47-2.23,32.93-4.72,49.14-8.44,8.14-1.86,16.21-4.04,24.14-6.63,3.91-1.28,7.78-2.66,11.61-4.15,3-1.17,6.17-2.49,7.94-5.35,1.67-2.71,1.72-6.05,1.57-9.13s-.4-6.12-.67-9.18c-.62-6.9-1.45-13.79-2.35-20.66-1.88-14.34-4.1-28.64-5.98-42.98-1.79-13.7-2.79-27.47-4.84-41.13-2.24-14.96-5.18-29.81-7.96-44.68-3.04-16.29-5.22-32.75-8.47-49-6.47-32.36-17.79-63.57-23.45-96.11-1.39-8-2.41-16.05-2.94-24.15-.05-.82-.64-1.48-1.5-1.5-32.97-.6-65.75,3.88-98.07,10.01s-65.05,14.06-97.77,20.12c-33.18,6.14-66.77,9.62-100.11,14.71-16.73,2.55-33.4,5.51-49.88,9.38-10.07,2.37-20.46,4.4-29.93,8.68-3.71,1.68-7.82,3.91-9.78,7.67-2.11,4.06-2.78,8.78-3.06,13.29-.88,13.82,1.65,27.92,3.89,41.5.3,1.81.57,3.63.83,5.45s3.17,1.09,2.89-.8c-1.85-12.6-4.24-25.15-4.69-37.91-.19-5.29-.13-10.76,1.22-15.91,1.11-4.22,3.1-6.86,6.89-9.03,8.6-4.92,18.88-6.83,28.42-9.08,15.5-3.65,31.09-6.71,46.81-9.23,32.67-5.24,65.62-8.54,98.22-14.2,31.97-5.55,63.53-13.12,95.34-19.5,31.86-6.39,64.11-11.61,96.67-12.16,4.03-.07,8.07-.06,12.1.01l-1.5-1.5c2.11,32.21,12.03,63.05,20.15,94.09,4.18,15.96,7.31,31.97,9.93,48.25,2.51,15.58,5.54,31.06,8.42,46.58,2.67,14.4,5.17,28.86,6.66,43.44,1.35,13.22,2.93,26.37,4.81,39.52,2,14.08,4.12,28.14,5.57,42.29.33,3.18.62,6.36.85,9.54s.78,6.67-.05,9.76c-1.12,4.13-5.32,5.39-8.91,6.75-3.84,1.46-7.72,2.8-11.64,4.04-31.6,10.04-64.82,13.6-97.56,17.91-34.63,4.55-69.26,9.1-103.88,13.65-34.77,4.57-69.55,9.14-104.32,13.71-8.58,1.13-17.17,2.26-25.75,3.38-7.29.96-15.11,2.78-22.49,1.86-3.48-.44-6.81-1.76-9.18-4.42s-3.64-6.49-4.79-9.94c-2.61-7.84-4.91-15.77-6.99-23.77-8.52-32.8-13.61-66.49-19.16-99.89-5.71-34.35-11.16-68.75-16.89-103.1-1.4-8.38-2.81-16.75-4.25-25.13-.33-1.9-3.22-1.09-2.89.8Z"/>
      </g>
      <g>
        <path class="cls-2" d="m388.87,68.01c29.41-24.8,58.81-40.61,88.22-65.41l.16-1.11c-83.88,17.28-150.88,29.28-229.88,44.28l-.53-.09c-52.47,19.09-73.47,27.09-126.8,46.26-46.1,16.57-93.67,28.83-113.73,43.36"/>
        <path class="cls-2" d="m389.93,69.07c22.94-19.3,48.61-34.86,72.49-52.9,3.25-2.45,6.46-4.94,9.63-7.49,1.69-1.36,3.36-2.73,5.02-4.12,1.11-.93,1.43-1.31,1.62-2.67.16-1.15-.63-2.09-1.85-1.85-34.65,7.14-69.35,13.96-104.1,20.59-32.94,6.28-65.91,12.41-98.87,18.61-4.38.82-8.76,1.65-13.14,2.48s-8.62,2.07-12.9,2.44c-3.55.31-7.23,2.2-10.63,3.44-3.87,1.41-7.75,2.83-11.62,4.24-13.26,4.85-26.52,9.72-39.77,14.59-29.41,10.8-58.78,21.82-88.5,31.78-16.25,5.44-32.59,10.59-48.75,16.28-12.47,4.39-25.17,8.95-36.7,15.51-2.17,1.23-4.27,2.55-6.3,4.01-1.55,1.12-.06,3.72,1.51,2.59,9.82-7.05,21.47-11.53,32.71-15.74,15.46-5.79,31.21-10.78,46.89-15.95,30.8-10.15,61.22-21.37,91.66-32.53,12.68-4.65,25.36-9.32,38.04-13.97,7.48-2.74,14.96-5.48,22.44-8.2,2.09-.76,4.18-1.52,6.26-2.28.64-.23,1.3-.57,1.89-.7.78-.17,1.71-.17,2.53-.33,4.3-.82,8.59-1.63,12.89-2.44,33.09-6.25,66.21-12.4,99.3-18.67,34.13-6.47,68.23-13.11,102.28-20.04,4.56-.93,9.12-1.86,13.68-2.8l-1.85-1.85c-.21,1.52-2.15,2.44-3.36,3.43-1.9,1.55-3.81,3.09-5.74,4.6-3.91,3.07-7.88,6.05-11.89,8.99-7.32,5.35-14.77,10.5-22.23,15.65-15.3,10.56-30.53,21.21-44.77,33.19-1.48,1.24.65,3.36,2.12,2.12h0Z"/>
      </g>
      <g>
        <path class="cls-1" d="m388.87,68.01c29.41-24.8,58.81-40.61,88.22-65.41l.97-.44c24.31,106.61,40.31,181.61,57.59,276.3l-.05-1.2c-4.27,10.77-22.23,32.52-30.23,44.52-16.93,25.4-33.11,43.49-61,83.56"/>
        <path class="cls-1" d="m389.93,69.07c22.29-18.75,47.15-33.97,70.45-51.37,3.2-2.39,6.36-4.81,9.49-7.29,1.65-1.3,3.28-2.62,4.9-3.95,1.29-1.06,2.5-2.31,4.03-3.01l-2.2-.9c8.62,37.8,17.12,75.63,25.26,113.54,7.36,34.24,14.41,68.55,21.08,102.94,3.87,19.92,7.61,39.87,11.25,59.83.3,1.67,3.02,1.28,2.95-.4l-.05-1.2c-.07-1.78-2.33-1.92-2.95-.4-1.52,3.76-3.8,7.26-6.02,10.64-2.9,4.4-5.98,8.68-9.1,12.93-5.76,7.85-11.57,15.64-17.05,23.69-10.61,15.61-22.32,30.44-33.64,45.53-8.62,11.49-17.05,23.13-25.27,34.92-1.11,1.59,1.49,3.09,2.59,1.51,13.26-19.04,27.26-37.5,41.23-56.02,11.27-14.94,21.68-30.47,32.8-45.52,3.56-4.82,7.11-9.66,10.44-14.65,2.59-3.89,5.14-7.88,6.91-12.23l-2.95-.4.05,1.2,2.95-.4c-6.4-35.07-13.12-70.08-20.24-105.02-7.17-35.18-14.72-70.29-22.5-105.34-4.88-22-9.85-43.97-14.86-65.94-.23-1.02-1.37-1.28-2.2-.9-2.63,1.2-4.84,3.66-7.09,5.47-3.03,2.44-6.09,4.83-9.19,7.17-5.83,4.41-11.78,8.66-17.77,12.86-11.86,8.3-23.88,16.36-35.53,24.95-6.79,5.01-13.45,10.2-19.91,15.63-1.48,1.24.65,3.36,2.12,2.12h0Z"/>
      </g>
      <g>
        <path class="cls-1" d="m391.87,71.01c29.41-24.8,55.81-43.61,85.22-68.41"/>
        <path class="cls-1" d="m392.93,72.07c21.56-18.18,44.12-35.1,66.11-52.73,6.43-5.15,12.8-10.37,19.1-15.68,1.48-1.25-.65-3.36-2.12-2.12-21.56,18.18-44.12,35.1-66.11,52.73-6.43,5.15-12.8,10.37-19.1,15.68-1.48,1.25.65,3.36,2.12,2.12h0Z"/>
      </g>
    </g>
    <text id="Text1" class="cls-7" transform="translate(22.28 167.18) rotate(-9.22)"><tspan x="0" y="0">string blockLocations = “”;</tspan><tspan x="0" y="16">foreach(Block codeBlock in CodeBlocks)</tspan><tspan x="0" y="32">{</tspan><tspan class="cls-5" x="0" y="48">	</tspan><tspan x="36" y="48">if(codeBlcok.ClueSolved() == true)</tspan><tspan class="cls-5" x="0" y="64">	</tspan><tspan x="36" y="64">{</tspan><tspan class="cls-5" x="0" y="80" xml:space="preserve">		</tspan><tspan x="72" y="80">blockLocations = $“{codeBlock.Name()} was found!\n”;</tspan><tspan class="cls-5" x="0" y="96" xml:space="preserve">		</tspan><tspan x="72" y="96">blockLocations = $“Location: {codeBlock.Location()}”;</tspan><tspan class="cls-5" x="0" y="112">	</tspan><tspan x="36" y="112">}</tspan><tspan x="0" y="128">}</tspan></text>
    <g id="CodeScribbles">
      <path class="cls-3" d="m409.18,84.91c1.25-1.75,4.29-1.8,5.35.21.95,1.8-.17,4.26-2.1,4.79l.47.36c.07-4.71,4.24-8.86,9.01-8.52.16.01.32-.12.36-.28,1.38-4.93,3.01-9.78,4.89-14.54l-.69.09,2.93,3.79c.17.22.49.27.65,0,1.19-2.01,2.39-4.03,3.58-6.04.53-.9,1.05-1.82,1.6-2.71.27-.44.56-.93,1-1.23,1.04-.72,1.73.19,2.23.93,1.57,2.34,3.99,3.3,6.77,2.9,7.44-1.08,9.57-8.88,12.79-14.48.57-.99,1.2-2.22,2.16-2.88,1.16-.79,2.63-.34,3.95-.47,1.89-.19,3.59-1.02,4.99-2.29.36-.33-.17-.85-.53-.53-1.73,1.57-3.77,2.19-6.08,2.08-1.78-.08-2.89.4-3.95,1.85-2.31,3.15-3.52,6.96-5.58,10.26-1.94,3.1-4.85,5.64-8.67,5.8-1.65.07-3.31-.41-4.46-1.64-.85-.91-1.44-2.72-2.98-2.6-1.66.13-2.55,2.4-3.26,3.6-1.4,2.36-2.8,4.72-4.19,7.08h.65l-2.93-3.79c-.2-.26-.56-.23-.69.09-1.88,4.76-3.51,9.61-4.89,14.54l.36-.28c-5.18-.36-9.69,4.18-9.76,9.27,0,.24.24.43.47.36,2.49-.68,3.83-3.93,2.4-6.14s-4.99-2.06-6.5.04c-.28.39.37.77.65.38h0Z"/>
      <path class="cls-3" d="m424.05,112.29c3.67-2.84,7.35-5.67,11.02-8.51l5.32-4.11c.7-.54,1.36-1.17,2.22-1.43s2.11-.31,2.03.9c-.02.29.33.46.56.32,1.55-.91,2.68-2.21,3.49-3.81.22-.43-.43-.81-.65-.38-.75,1.48-1.78,2.69-3.22,3.54l.56.32c.08-1.35-1.01-1.9-2.24-1.77-2.1.23-3.84,2.2-5.42,3.42-4.69,3.62-9.38,7.24-14.07,10.86-.38.29,0,.94.38.65h0Z"/>
      <path class="cls-3" d="m424.25,145.82c4.19-1.62,8.49-2.94,12.87-3.96.47-.11.27-.83-.2-.72-4.38,1.02-8.68,2.35-12.87,3.96-.45.17-.25.9.2.72h0Z"/>
      <path class="cls-3" d="m442.86,128.59c1.66,1.36,4.13,1.38,5.82.05.16-.13.13-.4,0-.53-.16-.16-.37-.12-.53,0-1.34,1.06-3.44,1.03-4.76-.05-.37-.3-.9.22-.53.53h0Z"/>
      <path class="cls-3" d="m452.67,126.04c2.33,1.48,5.64,1.04,7.49-1.02.32-.36-.21-.89-.53-.53-1.64,1.81-4.52,2.21-6.58.9-.41-.26-.79.39-.38.65h0Z"/>
      <path class="cls-3" d="m425.47,179.32c4.18-2.02,6.08-6.58,9.45-9.53.98-.86,2.06-1.49,3.3-1.89,1.43-.46,2.83-.77,4.13-1.57,2.6-1.6,4.75-4,6.97-6.07,2.34-2.19,4.65-4.42,7.05-6.55,2.17-1.93,4.61-3.81,7.54-4.33,2.48-.44,5.02.07,7.51-.3s3.92-1.74,5.23-3.76c.99-1.53,2.1-2.6,3.79-3.31,1.37-.58,2.83-.9,4.2-1.48,2.24-.94,4.24-2.63,4.58-5.14.06-.47-.66-.68-.72-.2-.78,5.75-8.57,4.68-11.62,8.49-.82,1.02-1.36,2.27-2.31,3.19-1.08,1.03-2.48,1.44-3.93,1.57-2.3.21-4.63-.18-6.92.24-2.5.45-4.68,1.87-6.62,3.45-2.4,1.96-4.61,4.17-6.87,6.29s-4.48,4.43-6.94,6.37c-1.35,1.06-2.77,1.71-4.42,2.18-1.12.32-2.18.67-3.15,1.31-4.23,2.75-6,8.19-10.62,10.43-.43.21-.05.86.38.65h0Z"/>
      <path class="cls-3" d="m483.02,175.3c5.02-1.67,9.31-5.22,11.85-9.86.23-.42-.42-.8-.65-.38-2.45,4.47-6.57,7.91-11.41,9.52-.46.15-.26.88.2.72h0Z"/>
      <path class="cls-3" d="m477.41,207.32c3.68-4.17,7.33-8.36,11.03-12.51,3.05-3.43,8.1-8.07,12.83-4.59.39.29.76-.36.38-.65-4.24-3.12-9.21-.05-12.31,3.15-4.34,4.5-8.33,9.38-12.46,14.07-.32.36.21.89.53.53h0Z"/>
      <path class="cls-3" d="m449.53,274.4c-.63-2.48-1.36-5.49-.2-7.92,1.26-2.64,4.19-2.82,6.76-2.83,2.25,0,4.38-.11,6.5-.97s3.8-2.09,5.41-3.54c3.98-3.61,6.91-8.28,9.95-12.67,3.71-5.34,7.42-10.67,11.12-16.01.99-1.42,1.91-3.12,3.14-4.34,1.42-1.41,3.09-1.01,4.89-1.22,2.67-.31,5.06-1.69,6.85-3.67.32-.36-.21-.89-.53-.53-2.1,2.32-4.78,3.47-7.89,3.52-1.15.02-2.25.1-3.22.8s-1.55,1.68-2.18,2.59c-3.95,5.67-7.89,11.36-11.84,17.03-3.3,4.75-6.41,9.88-10.69,13.82-1.92,1.77-4.16,3.29-6.7,3.98s-4.95.24-7.44.56c-2.26.28-4.19,1.42-5.01,3.64-.93,2.53-.28,5.42.36,7.94.12.47.84.27.72-.2h0Z"/>
      <path class="cls-3" d="m462.01,294.26l.82-1.98c.08-.18-.08-.42-.26-.46-.22-.05-.38.07-.46.26l-.82,1.98c-.08.18.08.42.26.46.22.05.38-.07.46-.26h0Z"/>
      <path class="cls-3" d="m484.19,273.1c2.37-1.4,4.23-3.59,5.32-6.11.08-.19.05-.4-.13-.51-.16-.09-.43-.05-.51.13-1.04,2.41-2.78,4.5-5.05,5.84-.42.25-.04.89.38.65h0Z"/>
      <path class="cls-3" d="m462.37,354.23c-.63-3.87-3.17-7.24-3.23-11.22-.03-1.83.47-3.83,2.08-4.91,1.39-.93,3.1-1.16,4.26-2.45,1.99-2.21,2.02-5.54,4-7.73,1.32-1.46,3.33-1.51,5.12-1.88,1.54-.32,2.86-.97,3.82-2.25,1.08-1.44,1.57-3.23,2.24-4.88.78-1.94,2.86-5.12,5.36-3.81.43.22.81-.42.38-.65-3.25-1.71-5.69,2.25-6.66,4.79-.75,1.97-1.45,4.43-3.48,5.47-1.74.89-3.81.69-5.59,1.47-3.19,1.4-3.43,5.23-4.99,7.91-.49.85-1.12,1.53-1.98,2-.98.55-2.1.81-3.02,1.47-1.21.86-1.88,2.21-2.14,3.64-.87,4.74,2.38,8.73,3.11,13.22.08.48.8.27.72-.2h0Z"/>
      <path class="cls-3" d="m500.84,296.86c-.96-2.34,1.32-4.35,2.86-5.79s2.95-3.04,4.22-4.74c2.61-3.49,4.58-7.43,5.91-11.58.15-.46-.58-.66-.72-.2-1.48,4.63-3.78,8.99-6.88,12.74-1.43,1.73-3.17,3.15-4.64,4.83-1.2,1.37-2.21,3.11-1.46,4.94.18.44.91.25.72-.2h0Z"/>
      <path class="cls-3" d="m246.74,53.5c9.46,1.14,19.15-.17,27.95-3.81.97-.4,1.93-.83,2.88-1.29.38-.18,1.02-.67,1.45-.63.32.03.84.4,1.16.5,1.32.44,2.74.42,4.1.17,3.45-.64,6.51-2.59,9.79-3.73,1.76-.61,3.64-1.06,5.51-.78,2.13.32,3.86,1.67,5.78,2.54,3.79,1.71,7.03-.08,9.94-2.59,3.32-2.86,7.94-7.07,12.03-3,1.14,1.13,2.35,2.19,4.06,1.71.92-.26,1.69-.86,2.5-1.33,1.11-.65,2.31-1,3.59-1.11,4.74-.43,9.34,1.42,13.82-.97,2.6-1.39,4.82-2.88,7.85-3.17s5.79.18,8.64.65c.47.08.68-.64.2-.72-4.33-.71-9.03-1.44-13.18.43-2.19.99-4.06,2.63-6.46,3.16-2.22.49-4.53.18-6.77-.02-2.01-.18-4.08-.32-6.05.24s-4.26,3.15-6.36,1.8c-1.6-1.03-2.42-2.68-4.44-3.06-1.77-.33-3.57.27-5.11,1.1-3.71,2-6.45,6.75-10.99,6.9-2.34.08-4.27-1.47-6.28-2.43-1.51-.72-3.09-1.06-4.77-.92-3.46.29-6.57,2.08-9.72,3.38-1.54.63-3.16,1.23-4.83,1.35-.8.06-1.61,0-2.39-.22-.64-.18-1.26-.72-1.89-.66-.47.04-1.12.57-1.56.79-.66.32-1.32.62-1.99.91-1.31.57-2.64,1.08-3.99,1.54-2.55.87-5.17,1.56-7.82,2.05-5.49,1.02-11.12,1.17-16.66.51-.48-.06-.47.69,0,.75h0Z"/>
      <path class="cls-3" d="m390.62,31.62c3.6.58,6.33-1.91,9.1-3.78,1.55-1.04,3.43-2,5.35-1.98,1.1.01,2.05.38,2.86,1.13.57.53,1.01,1.17,1.71,1.54,1.5.78,3.24-.13,4.65-.66,2.16-.82,4.32-1.64,6.48-2.45,4.4-1.67,8.79-3.33,13.19-5,.45-.17.25-.89-.2-.72-4.17,1.58-8.33,3.16-12.5,4.73-2.16.82-4.32,1.64-6.48,2.45-.98.37-1.97.84-3,1.08-1.31.31-2.11-.2-2.98-1.12-5.75-6.06-12,5.02-18,4.06-.47-.08-.68.65-.2.72h0Z"/>
      <path class="cls-3" d="m205.51,72.73c1.06,1.85,3.44,1.93,5.28,1.31,1.53-.52,2.89-1.51,4.5-1.83,1.81-.36,3.43.72,5.22.7,3.15-.03,5.49-2.48,7.94-4.11,1.41-.94,3.15-1.83,4.89-1.46,1.64.35,3.12,1.63,2.92,3.42-.06.48.69.47.75,0,.27-2.27-1.8-3.95-3.89-4.21-3.15-.4-5.71,2.18-8.07,3.82-1.7,1.18-3.61,2.11-5.73,1.67-1.54-.32-2.83-.87-4.42-.49-2.38.56-6.85,4.08-8.73.81-.24-.42-.89-.04-.65.38h0Z"/>
      <path class="cls-3" d="m270.24,67.2l1.78-1.78c.14-.14.15-.39,0-.53s-.38-.15-.53,0l-1.78,1.78c-.14.14-.15.39,0,.53s.38.15.53,0h0Z"/>
      <path class="cls-3" d="m294.3,61.76c.48,0,.48-.75,0-.75s-.48.75,0,.75h0Z"/>
      <path class="cls-3" d="m375.32,61.78c-2.82.86-5.67,1.73-8.62,2.05s-5.78-.13-8.68-.4c-5.31-.48-10.41.63-15.5,2.03s-10.33,2.86-15.76,3c-4.71.12-9.42-.34-14.13-.15s-9.59,1.19-13.48,4.22c-.38.3.15.82.53.53,7.62-5.94,18.16-3.62,27.08-3.85,5.04-.13,9.83-1.33,14.66-2.67,5.2-1.44,10.44-2.83,15.89-2.43,3.14.23,6.23.79,9.38.46s5.93-1.2,8.82-2.07c.46-.14.26-.86-.2-.72h0Z"/>
      <path class="cls-3" d="m293.07,74.54c-1.45,1.46-3.1,3.13-5.24,3.39-1.94.23-4.63-1.82-3.34-3.92.23-.38-.28-.72-.59-.45-4.45,3.84-10.09,6.03-15.97,6.2-.48.01-.48.76,0,.75,6.08-.18,11.89-2.45,16.5-6.42l-.59-.45c-1.23,1.99.45,4.31,2.46,4.92,2.86.87,5.48-1.65,7.3-3.48.34-.34-.19-.87-.53-.53h0Z"/>
      <path class="cls-3" d="m254.16,84.82l-.05-2.85c0-.15-.11-.33-.28-.36-1.51-.29-2.74.52-3.72,1.61-.59.65-1.08,1.39-1.74,1.96-.49.42-1.08.82-1.76.79-.86-.04-1.79-.75-1.48-1.69.12-.38-.36-.6-.63-.36-1.94,1.71-4.18,3.73-6.89,3.94-2.29.18-4.97-1.34-4.97-3.84,0-.15-.12-.34-.28-.36-1.75-.25-3.01.82-4.15,2.03-1.06,1.12-4,4.09-5.34,1.7-.24-.42-.88-.04-.65.38.84,1.5,2.6,1.34,3.97.67,2.07-1.01,3.37-4.43,5.97-4.06l-.28-.36c0,2.58,2.34,4.31,4.75,4.57,3.29.36,6.11-2.12,8.4-4.14l-.63-.36c-.53,1.62,1.28,2.89,2.77,2.58,2.62-.54,3.51-4.89,6.45-4.33l-.28-.36.05,2.85c0,.48.76.48.75,0h0Z"/>
      <path class="cls-3" d="m213.14,88.23c-1.75-3.05-5.7-2.83-8.48-1.49-2.07,1-3.82,2.62-5.97,3.45-1.18.45-2.74.69-3.72-.31-.75-.77-1.09-2.24-.06-2.93.4-.27.03-.91-.38-.65-2.46,1.6-4.93,3.2-7.39,4.79-.4.26-.03.91.38.65,2.46-1.6,4.93-3.2,7.39-4.79l-.38-.65c-1.23.83-1.25,2.4-.49,3.59,1.07,1.67,3.18,1.65,4.86,1.02,2.28-.86,4.12-2.59,6.33-3.61,2.37-1.1,5.78-1.3,7.27,1.3.24.42.89.04.65-.38h0Z"/>
      <path class="cls-3" d="m172.67,88.94c-4.68,2.14-8.7,5.52-11.66,9.73l.69.29c.18-1.13.66-2.14,1.44-2.98.28-.3-.08-.83-.45-.59-.82.52-1.64,1.04-2.45,1.56-.41.26-.03.91.38.65.82-.52,1.64-1.04,2.45-1.56l-.45-.59c-.86.93-1.43,2.06-1.63,3.31-.07.42.43.65.69.29,2.88-4.11,6.83-7.37,11.39-9.46.44-.2.06-.85-.38-.65h0Z"/>
      <path class="cls-3" d="m148.76,92.5c-.82-1.21-2.22-1.67-3.64-1.51-1.59.18-2.9,1.03-3.9,2.25-2.21,2.69-3.38,7.95-7.56,8.19-.48.03-.48.78,0,.75,3.55-.21,5.21-3.68,6.75-6.38.84-1.49,1.87-3.08,3.52-3.75,1.4-.56,3.26-.53,4.18.83.27.4.92.02.65-.38h0Z"/>
      <path class="cls-3" d="m121.97,100.43c-2.99,1.42-5.98,2.84-8.98,4.26-.44.21-.06.85.38.65,2.99-1.42,5.98-2.84,8.98-4.26.44-.21.06-.85-.38-.65h0Z"/>
      <path class="cls-3" d="m84.94,111.2c-1.6-.46-3.39-.17-4.75.8-.16.12-.24.33-.13.51.1.16.35.25.51.13,1.21-.86,2.75-1.14,4.18-.73.46.13.66-.59.2-.72h0Z"/>
      <path class="cls-3" d="m198.57,73c-4.47,1.41-8.93,2.82-13.4,4.23-.46.14-.26.87.2.72,4.47-1.41,8.93-2.82,13.4-4.23.46-.14.26-.87-.2-.72h0Z"/>
      <path class="cls-3" d="m170.19,78.98c.48,0,.48-.75,0-.75s-.48.75,0,.75h0Z"/>
      <path class="cls-3" d="m234.56,69.27c3.92,3.5,10.43,3.25,14.05-.57.33-.35-.2-.88-.53-.53-3.32,3.52-9.37,3.8-12.99.57-.36-.32-.89.21-.53.53h0Z"/>
      <path class="cls-3" d="m255.49,67.57c2.44.41,4.93.26,7.3-.46.46-.14.26-.86-.2-.72-2.23.68-4.6.84-6.9.46-.47-.08-.68.64-.2.72h0Z"/>
    </g>
    <text class="cls-6" transform="translate(166.99 395.25) rotate(-.72)"><tspan x="0" y="0">BLOCKS</tspan></text>
    <text class="cls-6" transform="translate(85.06 345.38) rotate(-12.94)"><tspan x="0" y="0">CODE</tspan></text>
    <g id="CoolCubeOriginal">
      <path class="cls-3" d="m287.04,261.34c-3.72,13.27-6.32,26.8-9.42,40.23-1.06,4.58-2.17,9.14-3.34,13.68-.05.19.06.41.26.46,19.26,5.13,38.65,9.76,58.16,13.85.2.04.4-.06.46-.26,5.49-18.17,9-36.83,13.79-55.18.05-.2-.06-.41-.26-.46-19.22-5.28-38.69-9.63-58.33-13.04-.47-.08-.67.64-.2.72,19.64,3.41,39.11,7.76,58.33,13.04l-.26-.46c-4.79,18.35-8.3,37.02-13.79,55.18l.46-.26c-19.51-4.09-38.9-8.72-58.16-13.85l.26.46c3.61-14.01,6.34-28.21,9.73-42.26.94-3.9,1.95-7.78,3.03-11.65.13-.47-.59-.66-.72-.2h0Z"/>
      <path class="cls-3" d="m320.68,255.12l.14.04c.12.03.28,0,.36-.1.49-.59.03-1.44-.75-1.09-.61.28-.7,1.08-.85,1.66-.24.94-.48,1.88-.72,2.82-.97,3.83-1.92,7.67-2.85,11.51-1.99,8.19-3.95,16.38-5.98,24.55-.05.19.06.41.26.46,15.42,3.82,30.8,7.94,46.46,10.7.18.03.42-.05.46-.26,2.03-11.47,4.33-22.9,6.2-34.41.29-1.78.7-3.54,1.04-5.31.26-1.36,1.03-3.27-.23-4.33-.85-.71-2.09-.78-3.13-.93-1.63-.24-3.25-.55-4.86-.85-3.54-.67-7.07-1.4-10.6-2.15-7.76-1.64-15.53-3.38-23.41-4.41-.48-.06-.47.69,0,.75,13.28,1.74,26.21,5.45,39.44,7.49,1.04.16,2.51.39,2.51,1.69,0,.87-.3,1.83-.46,2.68-.32,1.67-.71,3.32-.98,5-.79,4.86-1.65,9.71-2.55,14.56-1.24,6.67-2.49,13.34-3.67,20.03l.46-.26c-15.66-2.76-31.03-6.88-46.46-10.7l.26.46c.76-3.04,9.71-40.42,10.13-40.32-.47-.12-.67.6-.2.72h0Z"/>
      <path class="cls-3" d="m287.39,261.61c11.41-2.81,22.98-4.93,34.39-7.74.47-.12.27-.84-.2-.72-11.41,2.81-22.98,4.93-34.39,7.74-.47.12-.27.84.2.72h0Z"/>
      <path class="cls-3" d="m346.51,274.33c5.62-4.05,11.75-7.28,17.85-10.53.43-.23.05-.87-.38-.65-6.1,3.26-12.23,6.48-17.85,10.53-.39.28-.01.93.38.65h0Z"/>
      <path class="cls-3" d="m333.1,329.28c7.87-8.05,15.61-16.2,24.02-23.7.36-.32-.17-.85-.53-.53-8.41,7.5-16.15,15.64-24.02,23.7-.34.35.19.88.53.53h0Z"/>
      <path class="cls-3" d="m275.21,315.57c5.76-4.13,11.86-7.65,18.15-10.91,5.86-3.04,11.71-6.08,17.23-9.73.4-.26.03-.91-.38-.65-5.52,3.65-11.37,6.68-17.23,9.73-6.28,3.26-12.39,6.78-18.15,10.91-.39.28-.01.93.38.65h0Z"/>
    </g>
    <g id="CoolCubeOriginal-2" data-name="CoolCubeOriginal">
      <path class="cls-3" d="m93.04,415.44c10.35,5.55,21.22,10.03,31.68,15.36.17.09.42.05.51-.13,5.84-11.24,11.39-22.63,16.63-34.17.08-.18.06-.41-.13-.51-10.51-5.91-21.6-10.67-32.33-16.18-.17-.09-.41-.05-.51.13-5.94,11.23-11.34,22.73-16.18,34.47-.18.45.54.64.72.2,4.82-11.68,10.19-23.13,16.11-34.29l-.51.13c10.72,5.5,21.81,10.27,32.33,16.18l-.13-.51c-5.23,11.54-10.79,22.92-16.63,34.17l.51-.13c-10.46-5.33-21.33-9.82-31.68-15.36-.43-.23-.8.42-.38.65h0Z"/>
      <path class="cls-3" d="m94.07,393.49v-.13c.03-.18-.12-.3-.26-.36-.26-.1-.37-.09-.61.06-.15.09-.21.25-.17.42.16.83,1.11,1.06,1.79,1.4,1.01.51,2.03,1.02,3.04,1.53,1.98.99,3.97,1.97,5.95,2.95,4.33,2.13,8.66,4.25,12.98,6.4.17.09.42.06.51-.13,4.52-9.07,9.2-18.07,13.1-27.43.08-.2-.09-.39-.26-.46-6.9-2.87-13.76-5.85-20.69-8.68-1.11-.45-2.19-.98-3.29-1.45-.77-.33-1.56-.84-2.36-.33-.53.34-.77.98-1,1.54-.43,1.09-.86,2.17-1.33,3.25-.9,2.1-1.84,4.18-2.79,6.26-2.1,4.61-4.26,9.21-6,13.97-.17.45.56.65.72.2,2.89-7.92,6.94-15.35,10-23.19.3-.76.56-1.6,1.48-1.42.61.12,1.25.51,1.82.76.9.4,1.79.81,2.7,1.18,3,1.2,5.99,2.45,8.96,3.72,3.85,1.64,7.7,3.28,11.56,4.89l-.26-.46c-3.87,9.3-8.53,18.24-13.02,27.25l.51-.13c-4.03-2.01-8.08-4-12.13-5.99-1.81-.89-3.62-1.78-5.42-2.67-.93-.46-1.86-.93-2.79-1.4-.59-.3-2.94-1.09-3.08-1.78l-.17.42h.03c-.09-.11-.18-.23-.28-.35v.13c-.05.48.7.48.74,0h0Z"/>
      <path class="cls-3" d="m93.46,415.16c-.16-7.47.12-14.93-.05-22.4-.01-.48-.76-.48-.75,0,.16,7.47-.12,14.93.05,22.4.01.48.76.48.75,0h0Z"/>
      <path class="cls-3" d="m109.48,380.11c-1.72-4.02-2.86-8.24-4.03-12.44-.13-.46-.85-.27-.72.2,1.19,4.27,2.35,8.54,4.11,12.62.19.44.84.06.65-.38h0Z"/>
      <path class="cls-3" d="m141.75,396.08c-3.91-5.99-7.89-11.92-11.38-18.18-.24-.42-.88-.04-.65.38,3.49,6.25,7.47,12.18,11.38,18.18.26.4.91.03.65-.38h0Z"/>
      <path class="cls-3" d="m125.22,430.04c-3.4-8-4.79-16.6-7.87-24.71-.17-.45-.9-.25-.72.2,3.11,8.17,4.53,16.82,7.95,24.89.19.44.83.06.65-.38h0Z"/>
    </g>
  </g>
</svg>