<?xml version="1.0" encoding="UTF-8"?>
<svg id="Layer_2" data-name="Layer 2" xmlns="http://www.w3.org/2000/svg" viewBox="0 0 655.94 552.87">
  <defs>
    <style>
      .cls-1 {
        fill: #fff7d8;
      }

      .cls-1, .cls-2, .cls-3, .cls-4, .cls-5, .cls-6, .cls-7, .cls-8, .cls-9, .cls-10, .cls-11 {
        stroke-width: 0px;
      }

      .cls-2 {
        fill: #757d92;
      }

      .cls-3 {
        fill: #413aa3;
      }

      .cls-4 {
        fill: #6e84d0;
      }

      .cls-5 {
        fill: #454fff;
      }

      .cls-6 {
        fill: #7278ff;
      }

      .cls-7 {
        fill: #fffff3;
      }

      .cls-8 {
        fill: #666b86;
      }

      .cls-9 {
        fill: #90a3f0;
      }

      .cls-10 {
        fill: #3aff2e;
      }

      .cls-11 {
        fill: #939aae;
      }
    </style>
  </defs>
  <g id="Estimathon">
    <g>
      <path class="cls-6" d="m31.42,99.73c-7.1,11.48-14.21,22.97-21.31,34.45-3.96,6.41-8.04,13.13-8.69,20.63-.63,7.26,2.02,14.35,4.31,21.27,21.63,65.37,13.95,137.51,34.41,203.26,9.72,31.24,25.53,60.17,41.24,88.87,1.85,3.39,3.85,6.92,7.14,8.94,3.78,2.32,8.51,2.2,12.94,2,34.09-1.53,68.68-3.14,101.11-13.75,24.3-7.95,46.7-20.73,70.24-30.7,94.13-39.87,194.48-33.97,295.8-47.52,14.56-1.95,31.86-4.72,44.68-11.89,8.88-4.97,20.37-18.37,38.57-62.21"/>
      <path class="cls-5" d="m30.13,98.97l-15.32,24.76c-4.41,7.13-9.49,14.2-12.63,22.02s-2.51,16.11.02,24.34,5.49,17.02,7.65,25.73c8.54,34.55,10.66,70.21,14.41,105.48,3.77,35.48,9.79,70.34,23.59,103.43,6.82,16.35,14.88,32.14,23.26,47.73,2.01,3.74,4.04,7.47,6.08,11.2s3.89,7.72,6.53,11.07c4.5,5.7,10.96,6.22,17.76,5.94,36.06-1.5,72.91-3.4,107.17-15.75,16.29-5.88,31.8-13.66,47.45-21.02,16.58-7.8,33.51-14.66,51-20.14,68.26-21.36,140.27-23.38,210.97-29.61,17.69-1.56,35.36-3.36,52.96-5.78,14.67-2.02,30.57-4.38,43.52-12.05,4.9-2.9,8.8-7.19,12.22-11.68,6.73-8.84,11.9-18.87,16.68-28.86,3.51-7.33,6.75-14.79,9.87-22.29.74-1.78-2.16-2.56-2.89-.8-5.64,13.53-11.62,27.04-19.1,39.67-3.82,6.44-8.07,12.92-13.69,17.96-7.96,7.13-19.43,9.99-29.6,12.16-16.27,3.47-33.01,5.05-49.54,6.74-68.32,6.99-137.69,7.94-204.76,24.09-16.8,4.05-33.37,9.05-49.52,15.22s-31.45,13.71-46.99,21.01-32.39,14.35-49.66,18.61-35.29,6.42-53.16,7.73c-8.94.66-17.89,1.11-26.85,1.52-8.17.38-17.1,1.96-22.4-5.73-4.76-6.91-8.36-14.92-12.32-22.31-4.2-7.84-8.32-15.73-12.23-23.73-7.73-15.81-14.64-32.06-19.71-48.94-5.01-16.65-8.27-33.77-10.69-50.97-4.8-34.18-6.32-68.76-11.86-102.85-2.73-16.8-6.56-33.32-11.93-49.48-3-9.02-5.08-17.67-1.34-26.82,3.39-8.3,8.97-15.87,13.66-23.46s9.32-15.07,13.99-22.61c1.02-1.65-1.58-3.15-2.59-1.51h0Z"/>
    </g>
    <g id="Pole">
      <g>
        <path class="cls-8" d="m369.78,550.56c-6.77-5.36-12.27-2.57-21.98-11.53-1.77-16.78-3.38-29.89-6.61-45.55-4.58-22.18-9.15-44.36-13.73-66.54-1.62-7.84-3.78-16.23-3.78-16.23,7.41-6.57,14.87-14.13,14.87-14.13,3.1,2.81,7.48,3.67,8.96,7.59,5.69,15.08,4.98,31.7,6.96,47.7,2.96,23.94,12.07,47.12,11.96,71.25-.04,8.3-1.04,17.22,3.19,24.36"/>
        <path class="cls-8" d="m370.84,549.5c-3.04-2.37-6.41-3.51-10.04-4.64-4.54-1.41-8.42-3.67-11.94-6.89l.44,1.06c-.9-8.52-1.86-17.04-3.09-25.51s-2.85-16.92-4.59-25.33c-3.84-18.59-7.67-37.19-11.51-55.78-1.53-7.4-3.11-14.78-4.99-22.1l-.39,1.46c5.11-4.54,10.07-9.27,14.87-14.13h-2.12c2.8,2.46,7.32,3.63,8.73,7.35,1.85,4.87,2.96,10.03,3.74,15.16,1.6,10.51,1.69,21.17,3,31.71,2.66,21.49,10.24,42.14,11.72,63.8.38,5.65.05,11.27.12,16.92s.77,10.88,3.52,15.64c.97,1.67,3.56.16,2.59-1.51-2.45-4.24-3.03-9.1-3.11-13.92-.08-5.09.25-10.18-.01-15.27-.55-10.85-2.72-21.53-5.11-32.1s-5.02-21.12-6.5-31.87-1.57-21.22-2.98-31.77c-.79-5.9-1.97-11.77-4.01-17.37-.81-2.22-2.05-3.83-3.98-5.2-1.83-1.29-3.91-2.2-5.6-3.69-.6-.53-1.52-.61-2.12,0-4.8,4.86-9.76,9.59-14.87,14.13-.4.35-.51.96-.39,1.46,2.26,8.77,4.07,17.64,5.9,26.5,2.46,11.91,4.91,23.81,7.37,35.72,2.32,11.22,4.82,22.43,6.69,33.74.88,5.28,1.62,10.58,2.28,15.89.33,2.68.65,5.36.95,8.04.15,1.32.29,2.64.44,3.95.15,1.4.06,3.14.49,4.48.39,1.2,2.21,2.27,3.18,3.02,1.07.82,2.17,1.6,3.34,2.28,1.84,1.08,3.82,1.93,5.85,2.61,3.49,1.17,7.03,1.97,10.01,4.28,1.51,1.17,3.64-.94,2.12-2.12h0Z"/>
      </g>
      <g>
        <path class="cls-2" d="m367.86,551.39c-9.67-51.67-19.33-103.33-29-155,27.31-7.06,47.31-9.06,80.3-7.52,10.24,61.92,18.83,107.4,20.51,160.28"/>
        <path class="cls-2" d="m369.31,550.99c-3.78-20.19-7.56-40.38-11.33-60.58s-7.53-40.22-11.29-60.33c-2.13-11.36-4.25-22.73-6.38-34.09l-1.05,1.85c9.81-2.53,19.72-4.68,29.76-6.04s20.04-1.89,30.1-1.92c6.68-.02,13.36.18,20.03.49l-1.45-1.1c3.66,22.11,7.49,44.2,10.92,66.35,3.06,19.8,5.75,39.67,7.5,59.63.99,11.28,1.68,22.58,2.04,33.9.06,1.93,3.06,1.93,3,0-.64-20.1-2.36-40.14-4.83-60.1s-5.86-41.26-9.27-61.82c-2.14-12.92-4.33-25.84-6.47-38.76-.11-.66-.84-1.07-1.45-1.1-21.26-.99-42.44-.48-63.39,3.6-5.81,1.13-11.58,2.49-17.31,3.97-.83.21-1.19,1.06-1.05,1.85,3.78,20.19,7.56,40.38,11.33,60.58,3.76,20.11,7.53,40.22,11.29,60.33,2.13,11.36,4.25,22.73,6.38,34.09.35,1.9,3.25,1.09,2.89-.8h0Z"/>
      </g>
      <g>
        <path class="cls-8" d="m400.38,529.48c.02-1.7-2.79-1.32-3.89-.01-4.06,4.81-1.04,13.58,5.14,14.8,6.18,1.22,12.31-5.87,10.16-11.78-1.97-5.4-9.9-7.4-14.19-3.59"/>
        <path class="cls-8" d="m401.88,529.48c-.11-2.88-3.42-3.1-5.41-1.92-1.88,1.12-2.91,3.56-3.21,5.64-.62,4.37,1.36,9.18,5.23,11.46,4.55,2.68,10,.66,13.01-3.32s3.01-9.64-.83-13.05-10.12-3.93-14.14-.45c-1.46,1.27.67,3.38,2.12,2.12,2.35-2.04,6.02-1.93,8.67-.42,2.91,1.66,4.19,4.95,2.84,8.2-1.28,3.07-4.7,5.73-8.14,5.08-3.11-.59-5.16-3.42-5.75-6.47-.3-1.55-.14-3.39.62-4.81.38-.71.8-1.3,1.36-1.54.36-.15.54-.18.9-.16.21.02-.05,0-.05,0,.09-.15.1.19-.05-.06-.03-.05-.09-.12-.13-.17-.13-.17-.03.04-.04-.12.07,1.92,3.07,1.93,3,0h0Z"/>
      </g>
      <g>
        <path class="cls-8" d="m395.79,489.13c.02-1.7-2.79-1.32-3.89-.01-4.06,4.81-1.04,13.58,5.14,14.8,6.18,1.22,12.31-5.87,10.16-11.78-1.97-5.4-9.9-7.4-14.19-3.59"/>
        <path class="cls-8" d="m397.29,489.13c-.11-2.88-3.42-3.1-5.41-1.92-1.88,1.12-2.91,3.56-3.21,5.64-.62,4.37,1.36,9.18,5.23,11.46,4.55,2.68,10,.66,13.01-3.32s3.01-9.64-.83-13.05-10.12-3.93-14.14-.45c-1.46,1.27.67,3.38,2.12,2.12,2.35-2.04,6.02-1.93,8.67-.42,2.91,1.66,4.19,4.95,2.84,8.2-1.28,3.07-4.7,5.73-8.14,5.08-3.11-.59-5.16-3.42-5.75-6.47-.3-1.55-.14-3.39.62-4.81.38-.71.8-1.3,1.36-1.54.36-.15.54-.18.9-.16.21.02-.05,0-.05,0,.09-.15.1.19-.05-.06-.03-.05-.09-.12-.13-.17-.13-.17-.03.04-.04-.12.07,1.92,3.07,1.93,3,0h0Z"/>
      </g>
      <g>
        <path class="cls-8" d="m388.45,444.61c.02-1.7-2.79-1.32-3.89-.01-4.06,4.81-1.04,13.58,5.14,14.8s12.31-5.87,10.16-11.78c-1.97-5.4-9.9-7.4-14.19-3.59"/>
        <path class="cls-8" d="m389.95,444.61c-.11-2.88-3.42-3.1-5.41-1.92-1.88,1.12-2.91,3.56-3.21,5.64-.62,4.37,1.36,9.18,5.23,11.46,4.55,2.68,10,.66,13.01-3.32s3.01-9.64-.83-13.05-10.12-3.93-14.14-.45c-1.46,1.27.67,3.38,2.12,2.12,2.35-2.04,6.02-1.93,8.67-.42,2.91,1.66,4.19,4.95,2.84,8.2-1.28,3.07-4.7,5.73-8.14,5.08-3.11-.59-5.16-3.42-5.75-6.47-.3-1.55-.14-3.39.62-4.81.38-.71.8-1.3,1.36-1.54.36-.15.54-.18.9-.16.21.02-.05,0-.05,0,.09-.15.1.19-.05-.06-.03-.05-.09-.12-.13-.17-.13-.17-.03.04-.04-.12.07,1.92,3.07,1.93,3,0h0Z"/>
      </g>
      <g>
        <path class="cls-8" d="m381.04,401.09c.02-1.7-2.79-1.32-3.89-.01-4.06,4.81-1.04,13.58,5.14,14.8,6.18,1.22,12.31-5.87,10.16-11.78-1.97-5.4-9.9-7.4-14.19-3.59"/>
        <path class="cls-8" d="m382.54,401.09c-.11-2.88-3.42-3.1-5.41-1.92-1.88,1.12-2.91,3.56-3.21,5.64-.62,4.37,1.36,9.18,5.23,11.46,4.55,2.68,10,.66,13.01-3.32s3.01-9.64-.83-13.05-10.12-3.93-14.14-.45c-1.46,1.27.67,3.38,2.12,2.12,2.35-2.04,6.02-1.93,8.67-.42,2.91,1.66,4.19,4.95,2.84,8.2-1.28,3.07-4.7,5.73-8.14,5.08-3.11-.59-5.16-3.42-5.75-6.47-.3-1.55-.14-3.39.62-4.81.38-.71.8-1.3,1.36-1.54.36-.15.54-.18.9-.16.21.02-.05,0-.05,0,.09-.15.1.19-.05-.06-.03-.05-.09-.12-.13-.17-.13-.17-.03.04-.04-.12.07,1.92,3.07,1.93,3,0h0Z"/>
      </g>
      <path class="cls-8" d="m407.52,389.25c3.66,20.96,7.13,41.96,10.21,63.01,2.89,19.77,5.41,39.59,7.58,59.46,1.3,11.9,2.47,23.81,3.55,35.72.17,1.91,3.17,1.93,3,0-1.89-20.86-4.07-41.69-6.68-62.47-2.5-19.93-5.39-39.82-8.57-59.66-1.97-12.3-4.05-24.59-6.19-36.87-.33-1.9-3.22-1.09-2.89.8h0Z"/>
      <path class="cls-8" d="m348.15,394.58c3.38,20.26,7.15,40.45,11.01,60.62,3.98,20.78,8.08,41.53,12.1,62.31,2.1,10.89,4.18,21.79,6.19,32.7.35,1.9,3.24,1.09,2.89-.8-3.67-19.93-7.56-39.82-11.45-59.71-4.07-20.84-8.13-41.68-11.98-62.56-2.04-11.1-4.02-22.21-5.88-33.35-.32-1.9-3.21-1.09-2.89.8h0Z"/>
    </g>
    <g>
      <path class="cls-9" d="m94.28,69.68c-15.38,2.84-31.1,5.8-44.66,13.6-13.56,7.8-24.77,21.51-25.23,37.14-.37,12.45,5.89,23.97,11.02,35.32,32.05,70.96,23.34,153.21,40.81,229.1,3.36,14.61,8.09,29.66,18.75,40.2,15.32,15.14,39.63,17.42,60.6,12.49,20.97-4.93,39.93-15.88,59.76-24.3,89.26-37.91,190.79-38.18,287.53-44.87,32.35-2.24,85.54-13.65,114.97-27.29,20.9-9.69,38.34-20.22,36.47-54.03-2.14-38.71-10.29-64.03-21.59-94.82-14.98-40.81-23.86-83.84-26.27-127.24-.89-15.97-1.4-33.38-11.73-45.6-9.28-10.98-24.38-15.01-38.67-16.65-68.58-7.85-134.33,25.39-201.79,39.99-84.69,18.33-174.53,13.51-258.45,27.45"/>
      <path class="cls-4" d="m93.88,68.23c-26.41,4.88-58.69,12.35-68.86,40.92-4.95,13.9,0,27.56,5.86,40.3,6.55,14.27,12.16,28.72,16.27,43.9,16.28,60.19,13.37,123.45,25.97,184.3,2.87,13.87,6.2,28.35,14.15,40.31,7.08,10.64,17.71,17.83,30.02,21.09,28.38,7.53,55.96-4.73,81.21-16.56,28.85-13.51,58.67-23.73,89.76-30.7,31.13-6.98,62.83-11.07,94.58-13.94,31.7-2.86,63.5-4.49,95.27-6.42,13.64-.83,27.31-1.48,40.86-3.23s25.79-4,38.53-6.8c23.73-5.23,47.81-11.76,69.42-23.13,8.06-4.24,15.71-9.53,21-17.08,6.42-9.17,8.27-20.56,7.98-31.54-.74-28.04-7.04-55.62-16.12-82.05-5.03-14.64-10.55-29.06-14.9-43.93-4.66-15.93-8.4-32.13-11.24-48.48s-4.77-33.39-5.72-50.22c-.74-13.17-1.06-27.13-7.17-39.14-6.03-11.84-17.5-18.63-30.01-21.95-14.15-3.76-29.38-4.25-43.94-3.68-31.52,1.25-62.24,9.38-92.31,18.35-30.76,9.18-61.27,19.18-92.86,25.19-65.73,12.51-132.92,12.33-199.32,18.9-15.69,1.55-31.35,3.5-46.91,6.07-1.9.31-1.09,3.21.8,2.89,63.98-10.56,129.07-10.36,193.44-17.3,31.72-3.42,63.08-8.79,93.83-17.37,29.84-8.32,59.14-18.57,89.31-25.71,29.49-6.98,61.37-11.59,91.48-5.74,13.28,2.58,26.4,8.27,33.24,20.61s6.72,26.64,7.5,40.07c1.87,32.08,7.24,63.98,16.01,94.9,7.66,27.02,19.18,52.79,25.49,80.21,3.28,14.27,5.25,28.79,6.16,43.39.74,11.8-.04,24.05-6.75,34.19-5.26,7.95-13.41,13.22-21.74,17.49-9.68,4.96-19.81,8.88-30.16,12.22-24.88,8.03-50.81,13.65-76.75,16.87-13.36,1.66-26.84,2.27-40.28,3.09-15.11.91-30.22,1.76-45.33,2.72-60.88,3.84-122.47,9.19-180.98,27.47-14.41,4.5-28.58,9.77-42.34,15.97s-28.36,13.81-43.37,18.67c-24.9,8.06-57.06,8.15-73.95-15.22-8.46-11.7-11.85-26.27-14.77-40.17-3.18-15.09-5.39-30.37-7.16-45.68-3.43-29.64-5.26-59.44-9.24-89.02-3.97-29.5-10.19-58.89-22.23-86.25-6.01-13.65-14.58-28.05-10.76-43.52,3.17-12.86,13.18-23.17,24.5-29.46,13.31-7.39,28.53-10.17,43.33-12.9,1.9-.35,1.09-3.24-.8-2.89h0Z"/>
    </g>
    <g id="On">
      <g>
        <path class="cls-7" d="m86.24,94.34c-7.81-3.08-16.39,3.18-20.53,10.47-7.23,12.72-6.08,29.93,3.4,41.08,9.48,11.15,26.88,14.96,39.81,8.1,9.59-5.08,15.88-14.89,19.44-25.14,2.8-8.04,4.18-16.8,2.34-25.12s-7.29-16.1-15.16-19.34c-5.75-2.36-12.24-2.18-18.39-1.26-9.98,1.49-20.89,5.9-24.39,15.36"/>
        <path class="cls-1" d="m86.63,92.89c-8.14-3.06-16.38,2.66-20.92,9.1s-6.63,15.35-6.12,23.39,3.57,16.25,9.15,22.36c5.24,5.75,12.65,9.52,20.31,10.71s16-.11,22.76-4.41c7.14-4.54,12.32-11.62,15.77-19.25,3.97-8.78,6.39-18.72,5.09-28.37-1.11-8.26-5.27-16.22-12.21-21.03-7.74-5.37-17.83-5-26.68-3.18-7.43,1.53-15.12,4.72-19.81,10.94-1.14,1.52-2.01,3.18-2.68,4.95s2.21,2.59,2.89.8c2.53-6.64,9.09-10.49,15.55-12.54,3.62-1.15,7.38-1.84,11.16-2.17,4.5-.39,9.11-.23,13.4,1.34,7.05,2.57,12.08,9.1,14.27,16.1,2.73,8.71,1.33,18.15-1.59,26.61-2.51,7.29-6.39,14.31-12.06,19.61s-12.28,7.93-19.68,8.06-14.19-2.12-19.95-6.3-9.93-10.79-11.7-17.85-1.32-15.05,1.4-22.03c2.57-6.59,8.15-13.72,15.67-14.63,1.78-.21,3.5.05,5.17.68,1.81.68,2.59-2.22.8-2.89h0Z"/>
      </g>
      <g>
        <path class="cls-7" d="m563.67,21.34c-2.47-2.69-6.73-2.39-10.35-1.88-7.9,1.12-16.19,2.44-22.47,7.37-5.76,4.52-9.1,11.71-9.76,19.01-1.48,16.48,11.54,32.87,27.89,35.44,16.35,2.57,33.62-8.76,38.07-24.71s-4.25-34.4-19.24-41.41c-2.85-1.33-5.9-2.29-9.04-2.41-7.15-.27-13.75,3.79-19.19,8.45"/>
        <path class="cls-1" d="m564.73,20.28c-2.9-2.97-7.23-2.87-11.05-2.37-4.5.59-9.04,1.28-13.39,2.59s-8.24,3.21-11.55,6.14-5.6,6.58-7.16,10.58c-5.98,15.26,1.65,32.69,15.19,41.04,6.64,4.1,14.42,5.63,22.12,4.45,7.53-1.15,14.64-4.86,20.11-10.12s9.36-12.37,10.4-20.02-.52-15.29-3.98-22.06-8.88-12.53-15.6-16.03c-4.13-2.16-8.79-3.61-13.5-3.16s-8.75,2.3-12.51,4.79c-1.85,1.22-3.6,2.59-5.29,4.03-1.47,1.25.66,3.37,2.12,2.12,3.16-2.69,6.65-5.19,10.56-6.66s8.27-1.75,12.45-.45c6.86,2.12,12.79,6.96,16.79,12.87s6.12,12.35,6.27,19.19c.15,6.98-2.06,13.72-6.27,19.29-8.34,11.06-23.6,16.75-36.85,11.82-13.1-4.88-22.49-19.03-20.94-33.06.87-7.91,5.17-15.35,12.19-19.27,3.55-1.98,7.51-3.08,11.48-3.87s7.84-1.64,11.71-1.48c1.72.07,3.35.51,4.58,1.77,1.35,1.38,3.47-.74,2.12-2.12h0Z"/>
      </g>
      <g>
        <path class="cls-7" d="m603.66,249.4c-16.34.02-31.5,13.87-32.98,30.15s10.93,32.64,27.01,35.6c7.16,1.32,14.65.23,21.45-2.39,5.27-2.02,10.31-5.06,13.66-9.59,2.78-3.76,4.24-8.34,5.12-12.93,1.55-7.99,1.49-16.28-.17-24.25-1.61-7.73-5.17-15.66-12.04-19.54-7.09-4-16.22-2.69-23.34,1.25s-12.67,10.16-18.06,16.25"/>
        <path class="cls-1" d="m603.66,247.9c-15.22.11-29.35,11.33-33.44,25.91-4.19,14.96,3.69,31.27,16.85,38.94,7.59,4.42,16.49,5.32,25.03,3.62s17.48-5.76,22.49-13.14c2.59-3.81,3.98-8.34,4.83-12.83.95-4.99,1.31-10.09,1.04-15.17-.46-8.61-2.39-17.87-7.86-24.77s-14.15-9.12-22.58-7.27c-8.93,1.96-16.07,8.09-22.16,14.59-1.57,1.67-3.09,3.39-4.61,5.11-1.28,1.44.84,3.57,2.12,2.12,5.53-6.25,11.27-12.78,18.84-16.59,7-3.52,16.05-4.38,22.62.53,6.12,4.58,8.71,12.55,9.92,19.78,1.49,8.91,1.13,18.71-1.91,27.27-1.36,3.84-3.56,7.23-6.66,9.89s-6.89,4.53-10.73,5.88c-7.89,2.77-16.71,3.47-24.63.43-12.91-4.95-21.97-19.02-20.63-32.84s13.04-25.53,26.45-28.02c1.65-.31,3.33-.44,5.01-.45,1.93-.01,1.93-3.01,0-3h0Z"/>
      </g>
      <g>
        <path class="cls-7" d="m130.85,342.01c-10.83-1.57-21.02,6.99-25.27,17.08-5.94,14.13-2.44,31.72,8.47,42.49s28.54,14.04,42.59,7.91,23.64-21.28,23.17-36.6c-.51-16.57-13.33-32.29-29.69-34.99s-34.11,8.98-37.04,25.29"/>
        <path class="cls-1" d="m131.25,340.57c-9.62-1.3-18.3,4.26-23.7,11.91s-7.19,17.58-5.94,26.8,5.54,18.1,12.47,24.38,16.23,9.91,25.62,10.36,18.74-2.48,26.16-8.38,12.51-14.19,14.54-23.25.65-18.27-3.7-26.35-11.19-14.38-19.55-17.73c-16.42-6.58-36.63,2.08-43.59,18.29-.86,2-1.5,4.06-1.9,6.2-.35,1.89,2.54,2.7,2.89.8,2.93-15.72,19.89-26.95,35.54-24.18,16.54,2.92,28.83,19.3,28.23,35.87s-14.18,32.97-31.46,35.43c-8.51,1.21-17.46-.58-24.86-4.93s-12.98-11.42-15.72-19.61-2.8-17.07.16-25.13,9.55-15.33,18.03-17.27c1.95-.45,4.01-.56,6-.3.81.11,1.6-.19,1.85-1.05.2-.7-.25-1.74-1.05-1.85h0Z"/>
      </g>
      <g>
        <path class="cls-7" d="m103.43,189.2c-.9-1.1-2.75-.94-3.83-.02s-1.56,2.36-1.88,3.75c-.79,3.35-.95,6.96.26,10.18s3.97,6,7.37,6.57c1.62.27,3.29.05,4.85-.46,7.15-2.34,11.23-11.58,7.8-18.28s-13.75-8.63-19.12-3.37"/>
        <path class="cls-1" d="m104.49,188.14c-2.39-2.54-6.14-.73-7.4,1.98-1.49,3.19-1.8,7.26-1.25,10.71s2.18,6.33,4.84,8.36c2.87,2.19,6.52,2.59,9.92,1.47,5.22-1.72,9.08-6.65,9.93-12.04s-1.43-10.87-6.35-13.63-12-2.64-16.36,1.52c-1.4,1.33.72,3.45,2.12,2.12,5.89-5.61,17.04-1.6,17.75,6.56.36,4.07-1.5,8.26-4.67,10.81-1.8,1.45-4.13,2.35-6.45,2.3-2.51-.06-4.74-1.58-6.11-3.63-1.76-2.64-2.1-5.89-1.72-8.98.18-1.46.44-3.17,1.16-4.48.45-.81,1.62-1.85,2.47-.94,1.33,1.41,3.45-.72,2.12-2.12h0Z"/>
      </g>
      <g>
        <path class="cls-7" d="m113.85,235.69c-5.23.39-9.63,5.08-10.23,10.29s2.29,10.51,6.71,13.34c1.96,1.25,4.35,2.09,6.61,1.55,1.39-.33,2.62-1.16,3.69-2.1,4.35-3.84,6.48-10.04,5.41-15.75-.53-2.8-1.99-5.66-4.6-6.79-2.82-1.21-6.22,0-8.43,2.13s-3.49,5.03-4.72,7.84"/>
        <path class="cls-1" d="m113.85,234.19c-6.08.57-10.98,5.59-11.71,11.62-.77,6.38,3.26,13.06,9.07,15.7,3.21,1.46,6.55,1.32,9.42-.82,2.6-1.95,4.55-4.64,5.78-7.63,2.2-5.37,2.24-13.47-2.86-17.3-2.92-2.2-6.9-1.77-9.85.16-3.39,2.21-5.15,5.95-6.72,9.54-.77,1.75,1.82,3.28,2.59,1.51,1.11-2.54,2.24-5.22,4.19-7.24,1.63-1.68,4.2-3,6.58-2.29,4.87,1.45,4.98,8.75,3.91,12.67-1.14,4.17-5.01,10.45-10.13,9.26s-8.7-6.3-9.05-11.16c-.37-5.17,3.42-10.53,8.78-11.03,1.91-.18,1.92-3.18,0-3h0Z"/>
      </g>
      <g>
        <path class="cls-7" d="m173.28,90.35c.34-1.47-2.1-1.76-3.42-1.03-4.68,2.56-7.38,8.39-6.14,13.58s6.4,9.21,11.73,8.98,10.18-4.82,10.55-10.14c.39-5.55-3.69-10.63-8.62-13.23-2.49-1.31-5.33-2.16-8.12-1.78s-5.49,2.15-6.42,4.81"/>
        <path class="cls-1" d="m174.73,90.75c.44-3.25-3.29-3.92-5.63-2.72-2.86,1.47-5.01,4.26-6.19,7.19-2.53,6.3.15,13.49,6.17,16.65s13.13,1,16.65-4.67c3.77-6.07.98-13.42-4.17-17.67-3.14-2.59-7.26-4.56-11.41-4.38-3.85.17-7.36,2.34-8.75,5.99-.69,1.8,2.21,2.59,2.89.8.87-2.26,3.31-3.6,5.64-3.78,2.89-.21,5.76.94,8.15,2.49,3.97,2.58,7.47,7.43,6.21,12.38-1.13,4.45-5.63,7.78-10.24,7.3s-8.72-4.54-9.08-9.19c-.21-2.69.65-5.42,2.26-7.57.76-1.02,1.72-1.93,2.8-2.61.45-.29.86-.53,1.41-.54-.09,0,.34.03.39.02.11,0,.21.03.29.11-.2-.54-.3-.61-.3-.21-.22,1.66,2.72,2.07,2.95.4h0Z"/>
      </g>
      <g>
        <path class="cls-7" d="m224.79,82.92c-3.36-1.64-7.73-.88-10.34,1.8s-3.25,7.08-1.51,10.39c1.04,1.99,2.81,3.52,4.72,4.71,4.17,2.58,10.01,3.49,13.74.32,3.97-3.38,3.73-9.57,2.48-14.64-.55-2.26-1.37-4.68-3.33-5.95-3.88-2.51-8.73,1.11-11.9,4.47"/>
        <path class="cls-1" d="m225.55,81.63c-5.65-2.64-12.55.02-14.55,6.03-.92,2.77-.65,5.96.81,8.5,1.56,2.72,4.32,4.78,7.16,6.03,5.35,2.35,12.32,2.08,15.55-3.49,1.44-2.47,1.8-5.45,1.64-8.27s-.72-5.97-1.92-8.63c-1.44-3.2-4.47-5.08-7.99-4.44s-6.34,3.17-8.65,5.6c-1.33,1.4.79,3.52,2.12,2.12,2.54-2.66,8.39-7.71,11.37-2.84,1.13,1.84,1.57,4.2,1.88,6.31s.38,4.5-.22,6.64-1.88,3.87-3.86,4.78-4.21.83-6.24.33c-4.44-1.09-9.35-4.52-9.17-9.57s5.77-8.75,10.56-6.51c1.74.81,3.26-1.77,1.51-2.59h0Z"/>
      </g>
      <g>
        <path class="cls-7" d="m272.24,79.03c-4.96-2.73-11.92,1.32-12.66,6.93s4.09,11.08,9.71,11.8,11.28-2.79,13.94-7.79c1.5-2.82,2.12-6.35.66-9.19-1.77-3.45-6.2-4.89-10.01-4.18s-7.07,3.15-9.88,5.82"/>
        <path class="cls-1" d="m272.99,77.74c-4.96-2.59-11.29-.04-13.84,4.77-2.96,5.59.25,12.32,5.46,15.23,5.74,3.21,12.84,1.21,17.23-3.35s6.65-12.97.71-17.36c-2.67-1.98-6.26-2.49-9.47-1.79-3.94.87-7.27,3.41-10.15,6.13-1.41,1.33.72,3.45,2.12,2.12,3.63-3.43,8.5-6.82,13.72-5.08,2.28.76,4.06,2.57,4.38,5.01.35,2.65-.75,5.37-2.29,7.48-2.79,3.84-7.97,6.45-12.72,5.1-4.25-1.21-8.05-5.78-7-10.38.96-4.22,6.29-7.4,10.32-5.29,1.71.89,3.23-1.69,1.51-2.59h0Z"/>
      </g>
      <g>
        <path class="cls-7" d="m320.48,71.43c-4.56-2.65-11.12-.31-13.3,4.49s.09,11.03,4.67,13.63,10.82,1.54,14.58-2.15,4.98-9.62,3.38-14.64c-1.11-3.47-3.84-6.75-7.46-7.14-1.87-.21-3.74.37-5.43,1.19-3.47,1.68-6.6,4.84-6.74,8.7"/>
        <path class="cls-1" d="m321.24,70.13c-5.55-3.08-13.13-.34-15.56,5.5-2.55,6.13.95,13.55,7,15.95,6.52,2.59,14.27-.59,17.46-6.73s2.39-14.74-3.38-19.02c-6.81-5.05-17.63,1.81-18.09,9.66-.11,1.93,2.89,1.92,3,0,.15-2.68,2-4.89,4.15-6.34,2.36-1.59,5.57-2.89,8.3-1.45,4.89,2.57,5.74,9.47,4.06,14.19-1.8,5.06-7.06,8.35-12.42,7.45-4.92-.83-8.52-5.6-7.86-10.59.69-5.29,7.11-8.65,11.82-6.03,1.69.94,3.2-1.65,1.51-2.59h0Z"/>
      </g>
      <g>
        <path class="cls-7" d="m369.13,57.01c-4.39-.94-9.03,2.48-10.03,6.86s1.3,9.13,5.02,11.64c4.86,3.29,12.07,2.71,16.12-1.54s4.15-11.75,0-15.9-11.93-3.9-15.57.7"/>
        <path class="cls-1" d="m369.53,55.57c-6.2-1.19-12,3.96-12.16,10.15s4.84,11.93,10.92,13.11,12.3-1.21,15.04-6.67,1.76-12.26-2.99-15.98-12.74-3.35-16.74,1.54c-1.21,1.48.9,3.62,2.12,2.12,2.66-3.25,7.52-4.12,11.25-2.26,4.12,2.05,5.62,7.02,4.43,11.28-1.27,4.54-5.49,7.25-10.1,7.27s-9.29-3.01-10.61-7.74c-.7-2.53-.3-5.28,1.46-7.31,1.61-1.85,4.08-3.09,6.57-2.61,1.89.36,2.69-2.53.8-2.89h0Z"/>
      </g>
      <g>
        <path class="cls-7" d="m416.08,46.23c-5.22.34-10.51,3.2-12.61,7.99s0,11.34,4.93,13.1c5.3,1.89,10.99-2.07,14.1-6.76,1.62-2.45,2.89-5.47,2.03-8.27-1.24-4.01-6-5.55-10.09-6.49-2.24-.52-5.65-.13-5.48,2.17"/>
        <path class="cls-1" d="m416.08,44.73c-5.92.44-11.89,3.61-14.16,9.34-1.91,4.81-.19,11.09,4.29,13.85,5.53,3.42,12.21-.05,15.97-4.46,2.13-2.5,4.04-5.67,4.13-9.04.09-3.03-1.57-5.58-4.02-7.24s-5.68-2.67-8.57-3.02c-2.61-.31-6.32.51-6.25,3.8.04,1.93,3.04,1.93,3,0-.03-1.28,2.99-.85,3.72-.69,2.06.46,4.16,1.05,5.99,2.12s3.21,2.77,3.14,5.02c-.08,2.53-1.65,5.04-3.26,6.92-2.75,3.21-7.56,6.49-11.87,4.25-3.37-1.74-4.68-6.19-3.71-9.7,1.37-4.98,6.78-7.81,11.61-8.17,1.91-.14,1.93-3.14,0-3h0Z"/>
      </g>
      <g>
        <path class="cls-7" d="m458.01,38.49c-3.79-.57-7.64,1.99-9.12,5.52s-.79,7.73,1.22,10.99c2.32,3.76,6.78,6.48,11.12,5.65,3.41-.65,6.17-3.34,7.67-6.47s1.94-6.66,2.13-10.12c.18-3.35-.6-7.7-3.9-8.28-1.05-.19-2.11.09-3.12.43-4.34,1.44-8.32,3.96-11.48,7.26"/>
        <path class="cls-1" d="m458.01,36.99c-6.45-.81-11.48,5.16-11.41,11.24s4.29,12.13,10.29,13.71c6.54,1.72,12.02-3.11,14.14-8.95,1.11-3.08,1.54-6.6,1.54-9.86,0-2.48-.47-5.29-2.2-7.19-2.59-2.84-6.43-1.46-9.44-.14-3.55,1.55-6.76,3.83-9.45,6.61-1.34,1.39.77,3.51,2.12,2.12,1.85-1.91,3.92-3.54,6.24-4.84,1.09-.62,2.23-1.17,3.4-1.62s2.79-1.2,4.07-.7c1.63.64,2.07,2.95,2.2,4.47.21,2.44-.08,5.04-.57,7.44-.93,4.54-3.86,9.94-9.15,10.02-4.89.08-8.84-4.25-9.9-8.73-.61-2.6-.3-5.52,1.37-7.68s4.13-3.24,6.76-2.91c1.91.24,1.89-2.76,0-3h0Z"/>
      </g>
      <g>
        <path class="cls-7" d="m498.08,31.68c-3.19-1.85-6.79,1.76-8.36,5.09-2.68,5.69-3.81,13.16.53,17.71,3.58,3.76,10,3.89,14.29.96s6.48-8.31,6.45-13.5c-.03-4.48-1.83-9.26-5.7-11.52s-9.84-.8-11.18,3.48"/>
        <path class="cls-1" d="m498.84,30.39c-3.17-1.66-6.39.1-8.48,2.64s-3.43,6.03-4.08,9.33-.64,6.83.75,9.97,3.89,5.19,7,6.13c6.62,2,13.41-1.66,16.4-7.66,2.98-5.97,2.91-13.98-1.52-19.24-2.24-2.67-5.59-4.04-9.06-3.59-3.27.43-6.12,2.36-7.21,5.54-.63,1.83,2.27,2.62,2.89.8,1.47-4.29,7.55-4.19,10.4-1.53,3.88,3.62,4.26,9.87,2.67,14.64s-5.9,8.78-11.31,8.57c-2.48-.1-4.91-1.13-6.47-3.09s-2.04-4.42-1.98-6.83c.07-2.92.9-5.9,2.17-8.53.96-2,3.59-5.97,6.31-4.55,1.71.89,3.23-1.69,1.51-2.59h0Z"/>
      </g>
      <g>
        <path class="cls-7" d="m202.83,363.98c-4.01.1-6.76,4.67-6.25,8.65s3.32,7.27,6.33,9.92c2.93,2.58,7.07,4.9,10.56,3.14,1.5-.76,2.56-2.16,3.43-3.61,4.18-6.98,4.67-16.03,1.26-23.41-.44-.96-.96-1.9-1.75-2.6-2.59-2.26-6.62-.84-9.55.94-2.71,1.65-5.28,3.54-7.66,5.63-2.05,1.8-3.88,5.33-1.61,6.85"/>
        <path class="cls-1" d="m202.83,362.48c-3.2.18-5.72,2.31-6.96,5.2-1.4,3.25-.88,6.75.8,9.81,1.77,3.22,4.66,6.05,7.71,8.07s6.9,3.2,10.18,1.23c3.11-1.86,4.88-5.81,5.97-9.1,1.19-3.58,1.63-7.47,1.24-11.22-.37-3.55-1.29-7.7-3.52-10.59s-6.21-2.85-9.43-1.53c-2,.82-3.81,2-5.57,3.23s-3.72,2.67-5.35,4.23c-2.44,2.33-4.32,6.54-1.07,8.99,1.54,1.16,3.04-1.44,1.51-2.59-.73-.55-.06-1.89.26-2.46.67-1.19,1.65-2.05,2.69-2.92,2.34-1.96,4.9-3.87,7.64-5.25,2.09-1.05,5.22-2.05,6.96.12s2.45,5.52,2.81,8.17c.76,5.6-.44,11.78-3.73,16.45-4.03,5.7-10.69.02-13.86-3.69-1.89-2.21-3.55-5.2-2.97-8.2.45-2.34,2.13-4.79,4.7-4.93,1.92-.11,1.93-3.11,0-3h0Z"/>
      </g>
      <g>
        <path class="cls-7" d="m250.75,357.29c-1.2-2.64-5.27-2.91-7.41-.95s-2.53,5.27-1.84,8.09c1.23,4.98,5.62,9.04,10.69,9.86s10.52-1.63,13.26-5.97c2.72-4.3,2.73-9.87,1.27-14.75-.82-2.76-2.25-5.57-4.83-6.85-3.38-1.67-7.4-.13-10.77,1.56-3.12,1.58-6.4,3.55-7.65,6.83s1,7.89,4.48,7.55"/>
        <path class="cls-1" d="m252.05,356.53c-1.56-3.07-5.65-3.68-8.51-2.15-3.59,1.91-4.34,6.65-3.51,10.27,1.8,7.89,10.26,12.87,18.01,10.78,3.81-1.03,7.22-3.57,9.13-7.04,2.09-3.79,2.39-8.26,1.66-12.46-.66-3.84-2.24-8.29-5.83-10.32-4.12-2.33-8.92-.49-12.78,1.47s-8.1,4.76-8.54,9.35c-.35,3.67,2.24,7.97,6.29,7.73,1.92-.11,1.93-3.11,0-3-2.4.14-3.62-2.71-3.28-4.78.47-2.89,3.52-4.81,5.86-6.09,2.73-1.5,6.19-3.33,9.41-2.66s4.77,4.18,5.53,7.11c1.58,6.04.54,13.15-5.26,16.53-5.28,3.08-12.02,1.63-15.53-3.4-1.76-2.52-2.83-6.17-1.36-9.08,1.1-2.19,4.76-3.4,6.1-.75.87,1.72,3.46.21,2.59-1.51h0Z"/>
      </g>
      <g>
        <path class="cls-7" d="m301.28,340.57c-5.2-3.03-12.59.36-14.68,6.01s.5,12.32,5.19,16.11c2.12,1.71,4.77,2.97,7.49,2.76,5.79-.46,8.91-6.83,10.91-12.29,1.08-2.95,2.17-5.99,2.05-9.13s-1.76-6.43-4.69-7.56c-2.39-.92-5.07-.24-7.54.44-3.54.98-7.09,1.95-10.63,2.93-.55.96-.67,2.15-.32,3.2"/>
        <path class="cls-1" d="m302.04,339.28c-5.84-3.25-13.64-.08-16.42,5.81-3.24,6.87.2,15.17,6.06,19.41,3.16,2.28,7.17,3.26,10.84,1.65,3.02-1.33,5.15-4.13,6.67-6.97,1.81-3.38,3.33-7.27,4.13-11.02s.46-7.96-2.23-10.98c-3.44-3.87-8.53-2.52-12.88-1.33-2.62.72-5.24,1.44-7.86,2.16-1.26.35-2.11.5-2.62,1.8-.46,1.18-.47,2.42-.14,3.63.5,1.86,3.4,1.07,2.89-.8-.2-.73-.17-1.37.17-2.05l-.9.69c3.62-1,7.23-2,10.85-2.98,3.01-.82,6.53-1.54,8.65,1.37,1.93,2.66,1.65,6.05.82,9.06s-1.88,5.8-3.24,8.47c-1.13,2.2-2.56,4.47-4.72,5.78-2.54,1.54-5.43,1.09-7.89-.39-4.75-2.86-7.97-9.02-6.51-14.55,1.37-5.18,7.83-8.93,12.8-6.16,1.69.94,3.2-1.65,1.51-2.59h0Z"/>
      </g>
      <g>
        <path class="cls-7" d="m345.38,336.43c-1.46-1.76-4.22-2.02-6.29-1.04s-3.53,2.92-4.56,4.97c-1.58,3.15-2.31,6.84-1.4,10.24s3.66,6.41,7.12,7.03c4.41.8,8.55-2.17,11.89-5.14,3.75-3.33,7.58-8.48,5.17-12.88-1.29-2.35-3.97-3.52-6.46-4.52-2.84-1.14-5.99-2.3-8.87-1.27s-4.5,5.38-2.03,7.18"/>
        <path class="cls-1" d="m346.44,335.37c-2.17-2.41-5.87-2.56-8.59-1.02-3.02,1.72-4.88,5.14-5.88,8.37-1.08,3.51-1.05,7.41.66,10.71,1.43,2.77,4.1,5.07,7.21,5.65,3.75.7,7.34-.89,10.31-3.06s5.72-4.68,7.61-7.81c1.74-2.88,2.53-6.46.74-9.51s-5.08-4.22-8.09-5.39c-3.52-1.36-8.26-2.5-11.25.58-2.07,2.14-2.91,6.07-.3,8.16,1.49,1.19,3.63-.92,2.12-2.12-1.42-1.14-.62-3.2.6-4.21,2.08-1.7,5.42-.5,7.61.32s4.96,1.75,6.43,3.73.89,4.56-.27,6.59c-1.34,2.36-3.32,4.28-5.39,6.01s-4.6,3.51-7.37,3.84c-5.51.65-8.75-4.9-8.35-9.78.24-2.92,1.5-6.17,3.57-8.29,1.69-1.74,4.63-2.7,6.47-.64,1.29,1.44,3.41-.69,2.12-2.12h0Z"/>
      </g>
      <g>
        <path class="cls-7" d="m388.44,329.64c.55-1.04-1.41-1.42-2.5-.95-2.8,1.21-5.66,2.45-7.9,4.53s-3.75,5.19-3.11,8.18c.41,1.94,1.67,3.6,3.1,4.97,4.01,3.84,9.84,5.89,15.28,4.78s10.19-5.61,11.02-11.1-2.73-11.47-8.11-12.84c-2.8-.71-5.97-.15-8.15,1.74s-3.17,5.16-2.11,7.85"/>
        <path class="cls-1" d="m389.89,330.04c.58-1.52-.67-2.7-2.07-2.97-1.76-.34-3.38.61-4.92,1.33-3.56,1.65-7.03,3.92-8.7,7.62-3.55,7.9,4.74,14.63,11.69,16.36s14.84-1.06,18.4-7.61c3.27-6.02,1.4-13.83-4.39-17.58-3.34-2.17-7.87-2.41-11.35-.41s-5.42,6.51-4.02,10.41c.65,1.8,3.55,1.03,2.89-.8-.91-2.53.06-5.35,2.32-6.83,2.14-1.4,5-1.51,7.32-.51,4.45,1.92,6.81,7.38,5.54,11.97-1.37,4.93-6.19,8.53-11.23,8.88-5.32.37-11.99-2.44-14.47-7.42-1.53-3.07.13-6.4,2.52-8.49,1.31-1.14,2.87-1.99,4.43-2.74.75-.36,1.51-.72,2.29-1.03.19-.08.39-.2.6-.23.14,0,.28-.01.43-.02.5.19.44-.06-.16-.74-.69,1.81,2.21,2.59,2.89.8h0Z"/>
      </g>
      <g>
        <path class="cls-7" d="m440.48,325.85c-2.58-2.63-7.26-2.06-9.99.41-4.05,3.67-4.17,10.64-.67,14.83s9.87,5.45,14.96,3.47,8.81-6.81,10.09-12.12c.92-3.81.56-8.21-2.1-11.09-4.42-4.78-12.35-3.09-18.13-.09-1.63.84-3.3,1.84-4.2,3.43s-.7,3.96.89,4.88"/>
        <path class="cls-1" d="m441.54,324.79c-2.75-2.63-6.9-2.69-10.15-.97s-5.13,5.24-5.51,8.83c-.86,8.13,6.02,14.29,13.84,14.33,8.08.04,14.66-6.41,16.56-13.97.97-3.86.8-8.38-1.61-11.7-2.24-3.08-5.84-4.49-9.58-4.46-4.31.03-8.74,1.58-12.42,3.77-1.88,1.12-3.69,2.73-4.13,4.97-.4,2.05.27,4.09,2.04,5.27,1.61,1.07,3.12-1.53,1.51-2.59-.91-.6-.79-1.97-.35-2.83.77-1.49,2.54-2.34,3.97-3.06,2.62-1.32,5.56-2.33,8.51-2.51,2.75-.17,5.57.42,7.49,2.53,2.14,2.34,2.46,5.89,1.88,8.89-1.11,5.76-5.34,11.17-11.26,12.43s-12.09-1.83-13.33-7.82c-.6-2.92.13-6.24,2.3-8.36s5.86-2.8,8.11-.64c1.4,1.33,3.52-.78,2.12-2.12h0Z"/>
      </g>
      <g>
        <path class="cls-7" d="m485.83,319.36c-1.89-2.83-6.45-2.78-9-.53s-3.4,5.91-3.3,9.31c.16,5.5,3.23,11.53,8.63,12.63,6.37,1.3,11.92-4.77,14.24-10.84,1.4-3.65,2.02-8.21-.61-11.1-1.55-1.7-3.88-2.4-6.1-3-3.35-.9-7.2-1.66-10.05.31-3.79,2.62-3.48,8.26-2.44,12.75"/>
        <path class="cls-1" d="m487.13,318.6c-2.01-2.8-5.68-3.58-8.84-2.35-3.57,1.39-5.51,4.99-6.05,8.63-.99,6.66,1.93,15.48,9.2,17.26,7.92,1.95,14.25-5.67,16.61-12.34,1.2-3.4,1.77-7.68-.29-10.88-2.18-3.38-6.62-4.48-10.33-5.17-4.13-.77-8.71-.24-11.01,3.74-2.03,3.52-1.51,8-.65,11.79.43,1.88,3.32,1.09,2.89-.8-.59-2.6-1-5.46-.24-8.07.85-2.92,3.37-4.13,6.27-4,1.57.07,3.11.46,4.62.86s3,.8,4.29,1.64c2.63,1.71,2.85,4.92,2.24,7.74-1.12,5.19-4.93,11.57-10.56,12.66s-9.51-4.81-10.13-9.83c-.39-3.17.07-7.04,2.49-9.35,1.75-1.67,5.34-2.24,6.92-.03,1.12,1.55,3.72.06,2.59-1.51h0Z"/>
      </g>
      <g>
        <path class="cls-7" d="m530.16,310.04c-.9-2.64-4.77-3.11-7.06-1.52s-3.36,4.39-4.23,7.04c-1.21,3.69-2.29,7.79-.74,11.35,2.09,4.82,8.12,6.58,13.37,6.35,5.33-.23,11.23-2.5,13.11-7.49.71-1.89.76-3.97.54-5.98-.59-5.59-3.52-11.3-8.66-13.58s-12.34.29-13.57,5.78"/>
        <path class="cls-1" d="m531.61,309.65c-1.25-3.19-4.95-4.25-8.02-3.05-3.81,1.48-5.32,5.83-6.44,9.4-1.27,4.05-2.13,8.68.12,12.56,1.8,3.09,5.14,4.91,8.54,5.69,6.62,1.52,15.74,0,19.43-6.36,2.09-3.59,1.76-8.19.65-12.05-1.02-3.55-2.98-6.95-5.92-9.24-3.14-2.46-7.12-3.32-10.98-2.25-3.55.99-6.63,3.58-7.53,7.24-.46,1.87,2.43,2.67,2.89.8,1.23-5,7.76-6.78,12.01-4.57,5.25,2.73,8.02,9.73,7.31,15.44-.78,6.24-7.74,8.56-13.2,8.53-2.66-.02-5.42-.54-7.73-1.92-2.74-1.63-4.02-4.35-3.88-7.51.09-2.04.68-4.05,1.31-5.98.55-1.71,1.13-3.46,2.15-4.95.84-1.22,1.99-2.2,3.52-2.31,1.05-.08,2.44.23,2.87,1.32.69,1.78,3.6,1,2.89-.8h0Z"/>
      </g>
      <g>
        <path class="cls-7" d="m601.1,195.36c-2.82-4.93-11.07-4.05-14.22.66s-2.09,11.23.81,16.12c2.81,4.73,7.82,8.72,13.3,8.24,7.45-.66,11.96-9.54,10.56-16.89-.82-4.34-3.33-8.5-7.24-10.56s-9.22-1.58-12.19,1.7"/>
        <path class="cls-1" d="m602.4,194.6c-3.47-5.75-12.33-4.97-16.24-.11-5.18,6.44-2.28,16.16,2.7,21.78,2.61,2.94,6.13,5.17,10.1,5.59,3.48.36,6.88-.98,9.38-3.38,5.16-4.97,6.19-13.04,3.37-19.44-1.71-3.87-4.94-7.23-9.1-8.38s-8.62-.17-11.54,2.91c-1.33,1.4.79,3.53,2.12,2.12,1.98-2.09,4.96-2.87,7.77-2.34,3.06.58,5.54,2.62,7.14,5.24,2.99,4.89,2.91,11.15-.3,15.92-1.4,2.08-3.47,3.7-5.95,4.24-3.03.67-6.13-.52-8.51-2.36-4.9-3.79-8.3-11.08-6.32-17.22.93-2.86,3.13-4.8,6.06-5.43,2.5-.54,5.35.09,6.74,2.39,1,1.65,3.59.14,2.59-1.51h0Z"/>
      </g>
      <g>
        <path class="cls-7" d="m589.42,144.83c-3.48-3.09-9.29-2.63-12.72.52s-4.51,8.36-3.3,12.85c2.2,8.18,12.04,13.35,20.03,10.53,7.51-2.65,11.98-12.08,8.81-19.38-3.17-7.3-13.7-10.34-19.98-5.44"/>
        <path class="cls-1" d="m590.48,143.77c-3.01-2.55-7.21-3.19-10.91-1.84s-6.38,4.46-7.52,8.23c-2.28,7.59,1.83,15.41,8.72,18.87s14.68,2.35,19.65-3.37c4.65-5.35,6.08-13.71,1.6-19.61s-14.25-8.19-20.52-3.45c-1.52,1.15-.03,3.76,1.51,2.59,4.38-3.31,10.78-2.66,14.88.83,4.5,3.83,4.84,10.19,2.05,15.15-2.96,5.27-8.75,7.88-14.64,6.37s-10.55-6.23-10.87-12.26c-.19-3.59,1.12-7.57,4.26-9.61,2.86-1.85,6.97-2.08,9.66.21,1.46,1.24,3.6-.87,2.12-2.12h0Z"/>
      </g>
      <g>
        <path class="cls-7" d="m577.83,97.75c-1.4-3.5-5.93-5.1-9.47-3.83s-5.93,4.87-6.43,8.6.63,7.53,2.47,10.82c2.47,4.41,6.79,8.35,11.84,8.24,4.57-.1,8.51-3.53,10.63-7.58,2.86-5.43,2.88-12.62-1.05-17.33s-12.09-5.63-16.22-1.09"/>
        <path class="cls-1" d="m579.12,96.99c-1.33-3.09-4.63-4.88-7.91-5-3.64-.14-6.88,2.02-8.82,5-4.5,6.92-1.15,16.53,4.33,21.88,2.61,2.55,6.14,4.41,9.88,4.18s7.12-2.34,9.47-5.2c4.63-5.63,6.03-14.45,1.91-20.77-4.1-6.29-13.99-8.34-19.44-2.57-1.33,1.4.79,3.53,2.12,2.12,3.54-3.74,9.94-3.09,13.44.38,4.21,4.16,4.09,11.26,1.47,16.22-1.36,2.59-3.49,4.96-6.22,6.13s-5.69.75-8.19-.79c-5.17-3.19-9.01-10.69-7.59-16.74.72-3.05,2.9-6.08,6.12-6.74,2.77-.57,5.72.79,6.84,3.4.76,1.77,3.35.24,2.59-1.51h0Z"/>
      </g>
      <g>
        <path class="cls-7" d="m127.75,292.33c-2-3.77-8.07-2.42-10.8.86-4.99,5.99-3.35,16.27,3.27,20.38s16.59.98,19.65-6.2-1.64-16.55-9.22-18.38c-3.72-.89-7.61-.17-11.36.55"/>
        <path class="cls-1" d="m129.04,291.57c-1.66-2.9-5.1-3.51-8.12-2.63-3.23.95-5.69,3.32-7.05,6.37-2.66,5.96-1.28,13.73,3.67,18.12s12.96,4.44,18.48.69,7.71-11.08,5.05-17.49c-1.44-3.47-4.04-6.54-7.47-8.16-4.66-2.2-9.86-1.31-14.73-.38-1.89.37-1.09,3.26.8,2.89,3.73-.72,7.76-1.52,11.47-.3,2.45.81,4.53,2.6,5.93,4.74,2.9,4.43,3.15,10.45-.65,14.45-3.51,3.69-9.52,5.19-14.24,3.05s-7.25-7.91-6.57-13.02c.36-2.69,1.63-5.58,3.97-7.09,1.95-1.26,5.42-2.22,6.84.26.96,1.68,3.55.17,2.59-1.51h0Z"/>
      </g>
    </g>
    <g id="OffPartial2">
      <g>
        <path class="cls-11" d="m103.43,189.2c-.9-1.1-2.75-.94-3.83-.02s-1.56,2.36-1.88,3.75c-.79,3.35-.95,6.96.26,10.18s3.97,6,7.37,6.57c1.62.27,3.29.05,4.85-.46,7.15-2.34,11.23-11.58,7.8-18.28s-13.75-8.63-19.12-3.37"/>
        <path class="cls-11" d="m104.49,188.14c-2.39-2.54-6.14-.73-7.4,1.98-1.49,3.19-1.8,7.26-1.25,10.71s2.18,6.33,4.84,8.36c2.87,2.19,6.52,2.59,9.92,1.47,5.22-1.72,9.08-6.65,9.93-12.04s-1.43-10.87-6.35-13.63-12-2.64-16.36,1.52c-1.4,1.33.72,3.45,2.12,2.12,5.89-5.61,17.04-1.6,17.75,6.56.36,4.07-1.5,8.26-4.67,10.81-1.8,1.45-4.13,2.35-6.45,2.3-2.51-.06-4.74-1.58-6.11-3.63-1.76-2.64-2.1-5.89-1.72-8.98.18-1.46.44-3.17,1.16-4.48.45-.81,1.62-1.85,2.47-.94,1.33,1.41,3.45-.72,2.12-2.12h0Z"/>
      </g>
      <g>
        <path class="cls-11" d="m224.79,82.92c-3.36-1.64-7.73-.88-10.34,1.8s-3.25,7.08-1.51,10.39c1.04,1.99,2.81,3.52,4.72,4.71,4.17,2.58,10.01,3.49,13.74.32,3.97-3.38,3.73-9.57,2.48-14.64-.55-2.26-1.37-4.68-3.33-5.95-3.88-2.51-8.73,1.11-11.9,4.47"/>
        <path class="cls-11" d="m225.55,81.63c-5.65-2.64-12.55.02-14.55,6.03-.92,2.77-.65,5.96.81,8.5,1.56,2.72,4.32,4.78,7.16,6.03,5.35,2.35,12.32,2.08,15.55-3.49,1.44-2.47,1.8-5.45,1.64-8.27s-.72-5.97-1.92-8.63c-1.44-3.2-4.47-5.08-7.99-4.44s-6.34,3.17-8.65,5.6c-1.33,1.4.79,3.52,2.12,2.12,2.54-2.66,8.39-7.71,11.37-2.84,1.13,1.84,1.57,4.2,1.88,6.31s.38,4.5-.22,6.64-1.88,3.87-3.86,4.78-4.21.83-6.24.33c-4.44-1.09-9.35-4.52-9.17-9.57s5.77-8.75,10.56-6.51c1.74.81,3.26-1.77,1.51-2.59h0Z"/>
      </g>
      <g>
        <path class="cls-11" d="m320.48,71.43c-4.56-2.65-11.12-.31-13.3,4.49s.09,11.03,4.67,13.63,10.82,1.54,14.58-2.15,4.98-9.62,3.38-14.64c-1.11-3.47-3.84-6.75-7.46-7.14-1.87-.21-3.74.37-5.43,1.19-3.47,1.68-6.6,4.84-6.74,8.7"/>
        <path class="cls-11" d="m321.24,70.13c-5.55-3.08-13.13-.34-15.56,5.5-2.55,6.13.95,13.55,7,15.95,6.52,2.59,14.27-.59,17.46-6.73s2.39-14.74-3.38-19.02c-6.81-5.05-17.63,1.81-18.09,9.66-.11,1.93,2.89,1.92,3,0,.15-2.68,2-4.89,4.15-6.34,2.36-1.59,5.57-2.89,8.3-1.45,4.89,2.57,5.74,9.47,4.06,14.19-1.8,5.06-7.06,8.35-12.42,7.45-4.92-.83-8.52-5.6-7.86-10.59.69-5.29,7.11-8.65,11.82-6.03,1.69.94,3.2-1.65,1.51-2.59h0Z"/>
      </g>
      <g>
        <path class="cls-11" d="m416.08,46.23c-5.22.34-10.51,3.2-12.61,7.99s0,11.34,4.93,13.1c5.3,1.89,10.99-2.07,14.1-6.76,1.62-2.45,2.89-5.47,2.03-8.27-1.24-4.01-6-5.55-10.09-6.49-2.24-.52-5.65-.13-5.48,2.17"/>
        <path class="cls-11" d="m416.08,44.73c-5.92.44-11.89,3.61-14.16,9.34-1.91,4.81-.19,11.09,4.29,13.85,5.53,3.42,12.21-.05,15.97-4.46,2.13-2.5,4.04-5.67,4.13-9.04.09-3.03-1.57-5.58-4.02-7.24s-5.68-2.67-8.57-3.02c-2.61-.31-6.32.51-6.25,3.8.04,1.93,3.04,1.93,3,0-.03-1.28,2.99-.85,3.72-.69,2.06.46,4.16,1.05,5.99,2.12s3.21,2.77,3.14,5.02c-.08,2.53-1.65,5.04-3.26,6.92-2.75,3.21-7.56,6.49-11.87,4.25-3.37-1.74-4.68-6.19-3.71-9.7,1.37-4.98,6.78-7.81,11.61-8.17,1.91-.14,1.93-3.14,0-3h0Z"/>
      </g>
      <g>
        <path class="cls-11" d="m498.08,31.68c-3.19-1.85-6.79,1.76-8.36,5.09-2.68,5.69-3.81,13.16.53,17.71,3.58,3.76,10,3.89,14.29.96s6.48-8.31,6.45-13.5c-.03-4.48-1.83-9.26-5.7-11.52s-9.84-.8-11.18,3.48"/>
        <path class="cls-11" d="m498.84,30.39c-3.17-1.66-6.39.1-8.48,2.64s-3.43,6.03-4.08,9.33-.64,6.83.75,9.97,3.89,5.19,7,6.13c6.62,2,13.41-1.66,16.4-7.66,2.98-5.97,2.91-13.98-1.52-19.24-2.24-2.67-5.59-4.04-9.06-3.59-3.27.43-6.12,2.36-7.21,5.54-.63,1.83,2.27,2.62,2.89.8,1.47-4.29,7.55-4.19,10.4-1.53,3.88,3.62,4.26,9.87,2.67,14.64s-5.9,8.78-11.31,8.57c-2.48-.1-4.91-1.13-6.47-3.09s-2.04-4.42-1.98-6.83c.07-2.92.9-5.9,2.17-8.53.96-2,3.59-5.97,6.31-4.55,1.71.89,3.23-1.69,1.51-2.59h0Z"/>
      </g>
      <g>
        <path class="cls-11" d="m202.83,363.98c-4.01.1-6.76,4.67-6.25,8.65s3.32,7.27,6.33,9.92c2.93,2.58,7.07,4.9,10.56,3.14,1.5-.76,2.56-2.16,3.43-3.61,4.18-6.98,4.67-16.03,1.26-23.41-.44-.96-.96-1.9-1.75-2.6-2.59-2.26-6.62-.84-9.55.94-2.71,1.65-5.28,3.54-7.66,5.63-2.05,1.8-3.88,5.33-1.61,6.85"/>
        <path class="cls-11" d="m202.83,362.48c-3.2.18-5.72,2.31-6.96,5.2-1.4,3.25-.88,6.75.8,9.81,1.77,3.22,4.66,6.05,7.71,8.07s6.9,3.2,10.18,1.23c3.11-1.86,4.88-5.81,5.97-9.1,1.19-3.58,1.63-7.47,1.24-11.22-.37-3.55-1.29-7.7-3.52-10.59s-6.21-2.85-9.43-1.53c-2,.82-3.81,2-5.57,3.23s-3.72,2.67-5.35,4.23c-2.44,2.33-4.32,6.54-1.07,8.99,1.54,1.16,3.04-1.44,1.51-2.59-.73-.55-.06-1.89.26-2.46.67-1.19,1.65-2.05,2.69-2.92,2.34-1.96,4.9-3.87,7.64-5.25,2.09-1.05,5.22-2.05,6.96.12s2.45,5.52,2.81,8.17c.76,5.6-.44,11.78-3.73,16.45-4.03,5.7-10.69.02-13.86-3.69-1.89-2.21-3.55-5.2-2.97-8.2.45-2.34,2.13-4.79,4.7-4.93,1.92-.11,1.93-3.11,0-3h0Z"/>
      </g>
      <g>
        <path class="cls-11" d="m301.28,340.57c-5.2-3.03-12.59.36-14.68,6.01s.5,12.32,5.19,16.11c2.12,1.71,4.77,2.97,7.49,2.76,5.79-.46,8.91-6.83,10.91-12.29,1.08-2.95,2.17-5.99,2.05-9.13s-1.76-6.43-4.69-7.56c-2.39-.92-5.07-.24-7.54.44-3.54.98-7.09,1.95-10.63,2.93-.55.96-.67,2.15-.32,3.2"/>
        <path class="cls-11" d="m302.04,339.28c-5.84-3.25-13.64-.08-16.42,5.81-3.24,6.87.2,15.17,6.06,19.41,3.16,2.28,7.17,3.26,10.84,1.65,3.02-1.33,5.15-4.13,6.67-6.97,1.81-3.38,3.33-7.27,4.13-11.02s.46-7.96-2.23-10.98c-3.44-3.87-8.53-2.52-12.88-1.33-2.62.72-5.24,1.44-7.86,2.16-1.26.35-2.11.5-2.62,1.8-.46,1.18-.47,2.42-.14,3.63.5,1.86,3.4,1.07,2.89-.8-.2-.73-.17-1.37.17-2.05l-.9.69c3.62-1,7.23-2,10.85-2.98,3.01-.82,6.53-1.54,8.65,1.37,1.93,2.66,1.65,6.05.82,9.06s-1.88,5.8-3.24,8.47c-1.13,2.2-2.56,4.47-4.72,5.78-2.54,1.54-5.43,1.09-7.89-.39-4.75-2.86-7.97-9.02-6.51-14.55,1.37-5.18,7.83-8.93,12.8-6.16,1.69.94,3.2-1.65,1.51-2.59h0Z"/>
      </g>
      <g>
        <path class="cls-11" d="m388.44,329.64c.55-1.04-1.41-1.42-2.5-.95-2.8,1.21-5.66,2.45-7.9,4.53s-3.75,5.19-3.11,8.18c.41,1.94,1.67,3.6,3.1,4.97,4.01,3.84,9.84,5.89,15.28,4.78s10.19-5.61,11.02-11.1-2.73-11.47-8.11-12.84c-2.8-.71-5.97-.15-8.15,1.74s-3.17,5.16-2.11,7.85"/>
        <path class="cls-11" d="m389.89,330.04c.58-1.52-.67-2.7-2.07-2.97-1.76-.34-3.38.61-4.92,1.33-3.56,1.65-7.03,3.92-8.7,7.62-3.55,7.9,4.74,14.63,11.69,16.36s14.84-1.06,18.4-7.61c3.27-6.02,1.4-13.83-4.39-17.58-3.34-2.17-7.87-2.41-11.35-.41s-5.42,6.51-4.02,10.41c.65,1.8,3.55,1.03,2.89-.8-.91-2.53.06-5.35,2.32-6.83,2.14-1.4,5-1.51,7.32-.51,4.45,1.92,6.81,7.38,5.54,11.97-1.37,4.93-6.19,8.53-11.23,8.88-5.32.37-11.99-2.44-14.47-7.42-1.53-3.07.13-6.4,2.52-8.49,1.31-1.14,2.87-1.99,4.43-2.74.75-.36,1.51-.72,2.29-1.03.19-.08.39-.2.6-.23.14,0,.28-.01.43-.02.5.19.44-.06-.16-.74-.69,1.81,2.21,2.59,2.89.8h0Z"/>
      </g>
      <g>
        <path class="cls-11" d="m485.83,319.36c-1.89-2.83-6.45-2.78-9-.53s-3.4,5.91-3.3,9.31c.16,5.5,3.23,11.53,8.63,12.63,6.37,1.3,11.92-4.77,14.24-10.84,1.4-3.65,2.02-8.21-.61-11.1-1.55-1.7-3.88-2.4-6.1-3-3.35-.9-7.2-1.66-10.05.31-3.79,2.62-3.48,8.26-2.44,12.75"/>
        <path class="cls-11" d="m487.13,318.6c-2.01-2.8-5.68-3.58-8.84-2.35-3.57,1.39-5.51,4.99-6.05,8.63-.99,6.66,1.93,15.48,9.2,17.26,7.92,1.95,14.25-5.67,16.61-12.34,1.2-3.4,1.77-7.68-.29-10.88-2.18-3.38-6.62-4.48-10.33-5.17-4.13-.77-8.71-.24-11.01,3.74-2.03,3.52-1.51,8-.65,11.79.43,1.88,3.32,1.09,2.89-.8-.59-2.6-1-5.46-.24-8.07.85-2.92,3.37-4.13,6.27-4,1.57.07,3.11.46,4.62.86s3,.8,4.29,1.64c2.63,1.71,2.85,4.92,2.24,7.74-1.12,5.19-4.93,11.57-10.56,12.66s-9.51-4.81-10.13-9.83c-.39-3.17.07-7.04,2.49-9.35,1.75-1.67,5.34-2.24,6.92-.03,1.12,1.55,3.72.06,2.59-1.51h0Z"/>
      </g>
      <g>
        <path class="cls-11" d="m601.1,195.36c-2.82-4.93-11.07-4.05-14.22.66s-2.09,11.23.81,16.12c2.81,4.73,7.82,8.72,13.3,8.24,7.45-.66,11.96-9.54,10.56-16.89-.82-4.34-3.33-8.5-7.24-10.56s-9.22-1.58-12.19,1.7"/>
        <path class="cls-11" d="m602.4,194.6c-3.47-5.75-12.33-4.97-16.24-.11-5.18,6.44-2.28,16.16,2.7,21.78,2.61,2.94,6.13,5.17,10.1,5.59,3.48.36,6.88-.98,9.38-3.38,5.16-4.97,6.19-13.04,3.37-19.44-1.71-3.87-4.94-7.23-9.1-8.38s-8.62-.17-11.54,2.91c-1.33,1.4.79,3.53,2.12,2.12,1.98-2.09,4.96-2.87,7.77-2.34,3.06.58,5.54,2.62,7.14,5.24,2.99,4.89,2.91,11.15-.3,15.92-1.4,2.08-3.47,3.7-5.95,4.24-3.03.67-6.13-.52-8.51-2.36-4.9-3.79-8.3-11.08-6.32-17.22.93-2.86,3.13-4.8,6.06-5.43,2.5-.54,5.35.09,6.74,2.39,1,1.65,3.59.14,2.59-1.51h0Z"/>
      </g>
      <g>
        <path class="cls-11" d="m577.83,97.75c-1.4-3.5-5.93-5.1-9.47-3.83s-5.93,4.87-6.43,8.6.63,7.53,2.47,10.82c2.47,4.41,6.79,8.35,11.84,8.24,4.57-.1,8.51-3.53,10.63-7.58,2.86-5.43,2.88-12.62-1.05-17.33s-12.09-5.63-16.22-1.09"/>
        <path class="cls-11" d="m579.12,96.99c-1.33-3.09-4.63-4.88-7.91-5-3.64-.14-6.88,2.02-8.82,5-4.5,6.92-1.15,16.53,4.33,21.88,2.61,2.55,6.14,4.41,9.88,4.18s7.12-2.34,9.47-5.2c4.63-5.63,6.03-14.45,1.91-20.77-4.1-6.29-13.99-8.34-19.44-2.57-1.33,1.4.79,3.53,2.12,2.12,3.54-3.74,9.94-3.09,13.44.38,4.21,4.16,4.09,11.26,1.47,16.22-1.36,2.59-3.49,4.96-6.22,6.13s-5.69.75-8.19-.79c-5.17-3.19-9.01-10.69-7.59-16.74.72-3.05,2.9-6.08,6.12-6.74,2.77-.57,5.72.79,6.84,3.4.76,1.77,3.35.24,2.59-1.51h0Z"/>
      </g>
      <g>
        <path class="cls-11" d="m127.75,292.33c-2-3.77-8.07-2.42-10.8.86-4.99,5.99-3.35,16.27,3.27,20.38s16.59.98,19.65-6.2-1.64-16.55-9.22-18.38c-3.72-.89-7.61-.17-11.36.55"/>
        <path class="cls-11" d="m129.04,291.57c-1.66-2.9-5.1-3.51-8.12-2.63-3.23.95-5.69,3.32-7.05,6.37-2.66,5.96-1.28,13.73,3.67,18.12s12.96,4.44,18.48.69,7.71-11.08,5.05-17.49c-1.44-3.47-4.04-6.54-7.47-8.16-4.66-2.2-9.86-1.31-14.73-.38-1.89.37-1.09,3.26.8,2.89,3.73-.72,7.76-1.52,11.47-.3,2.45.81,4.53,2.6,5.93,4.74,2.9,4.43,3.15,10.45-.65,14.45-3.51,3.69-9.52,5.19-14.24,3.05s-7.25-7.91-6.57-13.02c.36-2.69,1.63-5.58,3.97-7.09,1.95-1.26,5.42-2.22,6.84.26.96,1.68,3.55.17,2.59-1.51h0Z"/>
      </g>
    </g>
    <g id="Words">
      <path class="cls-3" d="m200.7,140.35c2.27-1.1,3.27-3.92,2.71-6.29s-2.51-4.12-4.89-4.65c-3.39-.76-7.44-.03-10.78.66-6.55,1.36-13.16,4.53-17.97,9.22s-6.9,11.15-5.27,17.68c1.49,5.98,6.11,11.05,12.11,12.66,6.51,1.74,14.29-.38,18.53-5.76,1.16-1.47,1.7-3.08.93-4.92-.73-1.73-2.28-2.63-4.11-2.77-18.26-1.4-36.83,14.32-34.95,33.32.91,9.14,5.5,17.51,13.03,22.85,9.02,6.4,20.68,5.39,30.77,2.5s21.83-7.18,25.15-18.11c.68-2.25-.82-5.01-3.14-5.54s-4.8.73-5.54,3.14c-.1.33-.54,1.48-.13.55-.18.41-.38.82-.61,1.21s-.47.76-.72,1.14c-.13.19-.53.63.1-.1-.15.17-.29.35-.43.52-.6.68-1.26,1.32-1.95,1.9-.18.15-.36.29-.54.44.12-.1.75-.54.08-.08-.44.3-.87.6-1.32.88-.76.48-1.54.92-2.33,1.33-.43.22-.86.43-1.3.64-.22.1-.44.2-.66.3-.11.05-1.05.45-.46.21.55-.23-.17.07-.3.12-.22.09-.45.18-.67.26-.39.15-.79.3-1.18.44-1.03.37-2.07.72-3.11,1.05-2.43.78-4.89,1.5-7.38,2.06-1.13.25-2.27.43-3.41.65-.76.15.59-.06-.17.03-.3.03-.61.07-.91.1-.68.07-1.37.12-2.05.15-1.13.05-2.27.04-3.4-.03-.3-.02-.6-.04-.9-.07-.11-.01-1.03-.13-.53-.06s-.42-.08-.52-.1c-.37-.07-.74-.14-1.11-.23-.99-.23-1.95-.55-2.91-.88-.22-.08-.81-.22.15.08-.15-.05-.31-.13-.45-.2-.45-.22-.89-.43-1.33-.67-.77-.42-1.52-.89-2.23-1.4-.18-.13-.35-.26-.53-.39.11.08.74.61.13.09-.33-.29-.67-.57-1-.87-.65-.6-1.27-1.23-1.85-1.89-.29-.33-.57-.68-.85-1.02.67.81-.2-.28-.39-.56-.47-.69-.92-1.4-1.32-2.12-.22-.39-.43-.78-.63-1.18-.1-.2-.2-.4-.29-.6-.06-.12-.46-1-.18-.38.26.57-.03-.09-.09-.24-.08-.21-.16-.42-.24-.63-.15-.42-.29-.84-.43-1.27-.28-.91-.51-1.83-.7-2.76-.08-.38-.13-.77-.2-1.15-.11-.64.08.85.03.2-.02-.22-.05-.44-.07-.66-.08-.94-.11-1.89-.08-2.83.01-.44.04-.89.07-1.33.02-.19.2-1.4.07-.73s.14-.72.17-.88c.1-.49.22-.98.35-1.46.25-.91.57-1.78.91-2.66-.32.83.02-.01.19-.36.23-.47.47-.94.73-1.39.46-.81.96-1.6,1.5-2.36.13-.19.28-.38.41-.56-.09.12-.58.72-.06.08.3-.36.6-.72.91-1.06.7-.78,1.45-1.53,2.24-2.23.44-.39.89-.76,1.35-1.13-.75.61.23-.16.5-.35.92-.64,1.87-1.23,2.85-1.77.47-.25.94-.5,1.41-.73.21-.1.43-.2.64-.3.78-.37-.45.16.06-.03,1.99-.76,4-1.38,6.1-1.74.15-.03.91-.16.27-.05-.69.12.41-.04.45-.05.53-.05,1.05-.09,1.58-.11,1.12-.05,2.23-.02,3.35.07l-3.18-7.68c-.31.4-.64.78-.99,1.14-.18.18-1.42,1.19-.47.5-.82.6-1.68,1.08-2.6,1.51.91-.42-.14.02-.5.13-.43.13-.86.24-1.3.33-.07.01-1.15.16-.4.08.66-.07-.07,0-.24,0-.56.04-1.12.05-1.68.02-.22-.01-.45-.04-.67-.05-.64-.03.83.17.2.03-.49-.11-.98-.2-1.46-.34-.4-.12-1.36-.57-.49-.13-.5-.25-1-.49-1.48-.8-.19-.12-.37-.26-.55-.38.77.47.32.27.12.08-.37-.35-.74-.67-1.08-1.05-.15-.16-.29-.34-.44-.5-.45-.49.55.89,0-.02-.26-.43-.54-.84-.78-1.29-.13-.25-.25-.5-.37-.75.07.13.33.91.06.15-.15-.42-.3-.84-.42-1.28s-.2-.87-.29-1.31c-.23-1.07.02.72,0,.03,0-.28-.04-.56-.05-.84-.01-.5.04-1,.04-1.5,0-.64-.17.83-.04.2.05-.27.1-.55.16-.82.1-.44.24-.86.37-1.28.08-.24.36-.72-.08.14.18-.35.34-.71.54-1.06.26-.46.55-.9.85-1.33.49-.71.14-.16.02-.03.17-.2.34-.4.52-.6.4-.44.82-.86,1.26-1.27.2-.18.39-.36.6-.53.1-.09,1.02-.82.63-.53-.43.32.25-.17.35-.24.27-.19.54-.38.82-.56.48-.32.96-.62,1.46-.91,1.11-.66,2.26-1.24,3.43-1.78.81-.37.29-.13.11-.06.4-.16.8-.32,1.2-.47.67-.25,1.35-.47,2.04-.68,1.37-.41,2.77-.74,4.19-.98.28-.05.57-.09.85-.13-.8.12.29-.02.51-.04.64-.06,1.29-.1,1.93-.13.69-.03,1.38,0,2.07,0,.54,0-.56-.12-.68-.19l-1.39-1.8c-.31-1.47.18-2.67,1.47-3.62-2.12,1.03-2.86,4.22-1.61,6.16,1.4,2.18,3.89,2.72,6.16,1.61h0Z"/>
      <path class="cls-3" d="m246.09,151.02c-7.43-1.38-14.93,1.47-19.38,7.64-1.38,1.91-2.18,4.27-1.51,6.63s2.57,3.82,4.59,4.93c3.59,1.99,7.34,3.68,11.17,5.16,1.71.66,3.45,1.25,5.19,1.83.85.28,1.71.57,2.55.88.42.15.84.31,1.26.48-.7-.28.83.39.97.46.75.38,1.49.79,2.19,1.26.14.1,1.05.87.28.19.28.25.56.49.83.75s.51.54.76.81c.79.83-.38-.73.19.26.18.31.37.64.56.94.22.46.22.43,0-.08.09.23.17.45.24.69.09.31.25.74.24,1.06.04-1.18-.06-.12-.06.11,0,1.12.03.02.05.03.04.02-.19.82-.21.89l-.09.29c-.17.46-.13.38.12-.23.05.1-.37.71-.43.8-.11.18-.32.66-.51.76.39-.5.43-.56.12-.19-.14.16-.28.31-.43.45-.22.22-.46.43-.7.64-.78.72.81-.47-.11.07-.56.33-1.11.66-1.68.96-.96.51.91-.26-.13.05-.31.09-.62.21-.93.29s-.64.14-.95.22c-.5.08-.43.08.23-.02-.21.02-.43.04-.65.05-.32.02-.65.02-.97.01-.21,0-.43-.02-.64-.04.66.1.74.11.24.03-.85-.21-1.67-.42-2.5-.71-1.12-.39.75.45-.28-.13-.43-.24-.87-.45-1.29-.71-.32-.19-.63-.39-.93-.6-.2-.14-.41-.29-.6-.43.42.32.43.33.03,0-1.33-1.19-2.57-2.42-3.68-3.83.63.8-.14-.21-.22-.32-.3-.42-.59-.84-.86-1.27-.48-.74-.94-1.51-1.37-2.28-1.16-2.05-4.14-2.92-6.16-1.61s-2.85,3.96-1.61,6.16c3.49,6.18,8.63,11.97,15.64,14.05s14.38-.74,18.38-6.56c2.02-2.94,2.59-6.8,1.65-10.23-1.06-3.85-3.81-6.9-7.04-9.11s-7.43-3.39-11.24-4.7c-.88-.3-1.75-.62-2.62-.95-.43-.17-.87-.33-1.3-.51-.22-.09-.43-.17-.65-.26-.72-.29.5.22-.21-.09-1.85-.79-3.67-1.66-5.46-2.58-.9-.47-1.82-.93-2.69-1.47-.15-.09-.29-.18-.43-.28.32.22.41.44.15.04.42.64.67,1.04.65,1.81.09.3.05.57-.11.8-.12.22-.12.21,0-.02.23-.38.47-.75.72-1.12-.54.78.24-.24.45-.46.29-.3.6-.59.91-.86.14-.12.27-.23.41-.35-.29.24-.45.32-.05.06.71-.46,1.44-.84,2.19-1.24-.76.42.07-.02.43-.14.4-.13.8-.25,1.21-.35.36-.09,1.58-.27.57-.16.42-.04.83-.08,1.25-.09s.84,0,1.25.02c.18.01.36.03.54.05.66.04-1.09-.19.05.03,2.31.43,4.96-.64,5.54-3.14.5-2.21-.67-5.08-3.14-5.54h0Z"/>
      <path class="cls-3" d="m270.25,141.21c1.51,7.59,2.87,15.22,4.06,22.87s2.09,14.37,2.98,22.31c.26,2.33,1.88,4.62,4.5,4.5,2.21-.1,4.78-1.99,4.5-4.5-1.79-15.95-4.23-31.83-7.36-47.57-.46-2.31-3.34-3.85-5.54-3.14-2.46.8-3.64,3.06-3.14,5.54h0Z"/>
      <path class="cls-3" d="m266.25,168.41c8.45-3.12,17.01-5.92,25.67-8.39,2.26-.65,3.9-3.21,3.14-5.54s-3.11-3.84-5.54-3.14c-8.66,2.47-17.22,5.27-25.67,8.39-2.2.81-3.94,3.09-3.14,5.54.7,2.16,3.17,4.02,5.54,3.14h0Z"/>
      <path class="cls-3" d="m306.59,151.3c.41,2.24.78,4.49,1.11,6.75.05.32.09.64.14.97-.05-.39-.04-.3.03.26.06.48.12.97.18,1.45.14,1.13.26,2.26.38,3.4.46,4.54.73,9.09.83,13.65.05,2.35,2.03,4.61,4.5,4.5s4.56-1.98,4.5-4.5c-.22-9.68-1.24-19.34-2.98-28.86-.42-2.32-3.36-3.85-5.54-3.14-2.49.8-3.6,3.05-3.14,5.54h0Z"/>
      <path class="cls-3" d="m310.61,132.36h-.89c-.62-.03-1.2.1-1.73.38-.56.18-1.04.49-1.45.93-.44.41-.75.89-.93,1.45-.28.54-.41,1.11-.39,1.73l.16,1.2c.21.76.6,1.42,1.16,1.99l.91.7c.7.41,1.46.61,2.27.61h.89c.62.03,1.2-.1,1.73-.38.56-.18,1.04-.49,1.45-.93.44-.41.75-.89.93-1.45.28-.54.41-1.11.39-1.73l-.16-1.2c-.21-.76-.6-1.42-1.16-1.99l-.91-.7c-.7-.41-1.46-.61-2.27-.61h0Z"/>
      <path class="cls-3" d="m323.29,154.12c.95,3.36,1.78,6.76,2.46,10.18.34,1.71.64,3.43.91,5.16.31,2.02.36,2.44.59,4.47l8.84-1.2c-.28-1.19-.51-2.39-.7-3.6.13.82-.07-.6-.07-.63-.06-.61-.12-1.22-.15-1.83-.13-2.14-.11-4.29.08-6.42.01-.16.21-1.88.1-1.08.08-.61.19-1.21.3-1.81.2-1.05.43-2.1.71-3.13.14-.52.31-1.02.46-1.54.26-.88-.4.65.09-.23.23-.41.47-.82.71-1.23-.61,1.03.23-.15.28-.26.25-.23.15-.16-.29.19.17-.12.35-.22.53-.31-.33.23-.7.32-1.11.29.5,0,.41-.03-.25-.09.95.18-.7-.44.08.05-.49-.39-.56-.42-.2-.08-.36-.5-.4-.54-.12-.13.11.21.75,1.54.31.45.13.32.24.64.35.97.35,1.06.65,2.14.97,3.2,1.37,4.58,2.75,9.16,4.12,13.74.65,2.16,2.71,3.52,4.94,3.22s3.92-2.17,3.9-4.42.05-4.47.23-6.69c.08-1,.19-1.99.3-2.99.11-.93.05-.38.02-.18.03-.23.07-.46.1-.69.09-.61.19-1.22.3-1.82.77-4.32,1.93-8.57,3.47-12.68.11-.29.22-.58.33-.86.04-.1.3-.6.04-.11s.33-.57.42-.73c.11-.2.52-.64-.08.09.16-.2.44-.23.05-.08-.22.08-.39.28-.64.34s-1.04-.17-.7-.02c.61.27-.55-.42.02-.02.16.11.35.2.52.31-.67-.41.24.25.44.45s.89,1.12.41.43c.29.42.57.85.83,1.3.22.4.4.81.61,1.21.24.45-.04-.11-.07-.18.09.25.19.49.28.74.31.87.57,1.76.8,2.66.52,2.04.9,4.12,1.28,6.19.47,2.54.88,5.09,1.25,7.64.03.24.07.48.1.72.22,1.54-.05-.4.07.48.08.64.16,1.28.24,1.92.16,1.36.31,2.72.45,4.09.24,2.33,1.9,4.62,4.5,4.5,2.24-.1,4.75-1.99,4.5-4.5-.57-5.62-1.34-11.22-2.34-16.77-.85-4.73-1.68-9.77-4.3-13.91-1.5-2.37-3.48-4.43-6.1-5.54-3.01-1.27-6.63-.61-8.79,1.93-1.77,2.09-2.63,4.73-3.51,7.29-.82,2.4-1.52,4.85-2.08,7.33-1.35,5.94-2.02,12.06-1.97,18.15l8.84-1.2c-1.28-4.27-2.56-8.54-3.84-12.81-1.18-3.93-2.13-8.65-5.99-10.88-4.51-2.6-9.46.14-11.76,4.28-2.11,3.81-2.76,8.54-3.13,12.81-.44,4.97.03,10.02,1.17,14.88.51,2.18,2.81,3.51,4.94,3.22,2.01-.27,4.15-2.19,3.9-4.42-.84-7.51-2.22-14.93-4.28-22.21-.64-2.26-3.21-3.9-5.54-3.14s-3.83,3.11-3.14,5.54h0Z"/>
      <path class="cls-3" d="m394.34,134.76c-.35-2.75-1.72-4.97-4.57-5.69-2.14-.54-4.48-.01-6.4,1.01-3.06,1.64-5.64,5.08-7.28,8.04-3.48,6.28-4.5,14.07-2.4,20.97,1.21,3.98,3.32,7.72,6.69,10.24,1.75,1.31,4.11,2.14,6.32,1.95,2.79-.24,4.98-1.55,7.12-3.24,5.2-4.08,8.7-10.47,9.83-16.94,1.34-7.61.13-15.82-4.51-22.16-1.34-1.83-3.41-2.77-5.62-1.84-1.88.8-3.43,3.21-2.61,5.31,4.07,10.4,9.09,20.39,15.14,29.79,1.27,1.98,4.05,2.97,6.16,1.61,1.98-1.27,2.98-4.04,1.61-6.16-2.87-4.46-5.54-9.06-7.96-13.78-1.19-2.33-2.33-4.68-3.41-7.06-.25-.56-.5-1.12-.75-1.69-.15-.35-.31-.71-.46-1.06-.08-.18-.28-.64-.09-.2-.54-1.27-1.05-2.56-1.56-3.85l-8.22,3.47c.71.97,1.35,1.99,1.9,3.06.15.29.28.59.43.88.49,1-.32-.92.05.13.22.62.44,1.22.63,1.85s.34,1.26.47,1.9c.06.27.47,2.04.16.74.3,1.23.23,2.67.19,3.93-.02.66-.06,1.31-.12,1.97-.02.21-.02.46-.07.65.32-1.18.01-.16-.04.11-.23,1.3-.55,2.57-.97,3.82-.1.31-.21.62-.33.93-.02.06-.43,1.06-.14.37s-.15.31-.17.36c-.14.3-.28.59-.43.88-.6,1.16-1.31,2.25-2.07,3.32.71-.98-.33.37-.53.6-.44.49-.89.96-1.37,1.4-.4.37-.82.73-1.24,1.07.95-.79-.11.07-.28.18s-1.6.81-.74.51c-.07.02-1.22.2-.57.18.73-.02-1.06-.31.33.03-.26-.06-1.17-.5-.28-.02-.33-.18-.64-.36-.95-.57.7.47.18.14.04-.02-.26-.28-.54-.55-.8-.83-.81-.86.36.7-.23-.32-.24-.42-.51-.81-.74-1.23-.27-.5-.52-1.01-.75-1.53.47,1.06.02,0-.05-.19-.11-.32-.22-.64-.32-.97-.16-.54-.31-1.09-.43-1.64-.07-.33-.13-.67-.19-1-.2-1.02.05.8-.02-.15-.09-1.25-.15-2.49-.08-3.75.02-.34.06-.68.09-1.02.09-1.16-.2.98.02-.16.13-.67.25-1.34.42-2.01.2-.77.44-1.53.71-2.28.08-.21.16-.42.25-.64-.44,1.12.14-.27.24-.48.33-.66.69-1.3,1.08-1.93.15-.24.31-.48.47-.71.13-.19.26-.37.39-.55-.36.46-.39.49-.08.1.44-.52.89-1.03,1.37-1.51.24-.24.49-.48.74-.7.17-.15.34-.3.52-.45-.51.37-.58.43-.2.17-.04.02.5-.26.5-.27-.63.26-.72.31-.26.15.18-.05.37-.09.56-.13l-.65.1c.5.01.35-.03-.44-.11.46.13.31.06-.44-.22-1.03-.64-1.56-1.56-1.6-2.77.29,2.33,1.86,4.62,4.5,4.5,2.18-.1,4.82-2,4.5-4.5h0Z"/>
      <path class="cls-3" d="m412.72,107.68c4.81,14.26,4.89,29.47,8.23,44.05.46,2.02.99,4.02,1.6,6,.31.99.63,1.97.98,2.95.17.49.36.98.54,1.46.06.16.11.45.22.58.07.25.08.21.04-.1-.03-.29-.03-.58,0-.86l1.16-1.99-.22.22,1.99-1.16-.16.06h2.39l.81.34,1.61,1.61c-.46-.64-.32-.08.41,1.68l-.61,2.27.05-.1-1.61,1.61.1-.04-3.47.45.15.04c2.29.54,4.98-.72,5.54-3.14s-.69-4.95-3.14-5.54c-4.26-1.01-7.6,3.62-5.17,7.31,1.18,1.8,3.31,2.75,5.43,2.15,2.23-.63,3.65-2.76,3.72-5.02.04-1.29-.42-2.42-.86-3.6s-.84-2.37-1.21-3.58c-.67-2.19-1.25-4.41-1.74-6.65-2.04-9.17-2.82-18.56-4.36-27.82-.88-5.28-2.01-10.51-3.73-15.58-.75-2.23-3.13-3.92-5.54-3.14-2.21.72-3.95,3.15-3.14,5.54h0Z"/>
      <path class="cls-3" d="m416.3,140.26c1.9-1.3,3.86-2.5,5.91-3.56,2.23-1.16,3.24-1.6,5.23-2.34s4.09-1.38,6.18-1.89c1.12-.27,2.24-.51,3.38-.71.57-.1,1.13-.19,1.7-.27-.94.14.78-.09.94-.11,2.33-.25,4.62-1.89,4.5-4.5-.1-2.22-1.99-4.77-4.5-4.5-9.98,1.08-19.58,4.41-27.88,10.12-1.94,1.33-3,4.01-1.61,6.16,1.24,1.93,4.08,3.04,6.16,1.61h0Z"/>
      <path class="cls-3" d="m441.92,100.06c1.76,9.49,3.52,18.97,5.02,28.51.38,2.42.75,4.85,1.09,7.27.32,2.24.5,3.61.8,6.09.6,4.87,1.09,9.74,1.45,14.63l8.84-1.2c-.27-1.11-.5-2.22-.68-3.35-.15-.9-.03-.26-.01-.07-.03-.28-.06-.57-.09-.85-.07-.71-.12-1.42-.14-2.13-.05-1.14-.04-2.28.02-3.42.03-.57.07-1.14.12-1.7.03-.28.06-.57.09-.85-.07.66,0,.04.04-.29.37-2.32.94-4.61,1.73-6.82.19-.54.4-1.07.61-1.6-.28.69,0,.02.05-.1.12-.26.24-.52.36-.78.25-.51.5-1.03.77-1.52.11-.21.23-.42.36-.62.17-.27.79-.86.15-.27.17-.15.35-.35.5-.51-.15.17-.74.39-.08.1-.73.32-1.25.27-1.95-.07.34.17.35.41-.07-.11.15.18.34.35.49.52-.14-.16-.44-.7-.07-.02.15.27.31.52.45.79.53.98,1.01,1.99,1.48,3.01.25.55.5,1.1.74,1.66-.26-.61.03.09.07.18.17.42.34.84.5,1.27,1.79,4.67,3.03,9.51,3.8,14.44.14.92.05.35.03.15.06.45.11.9.16,1.35.09.8.14,1.6.25,2.4.33,2.44,2.55,4.61,5.13,4.5,2.37-.11,4.4-1.57,4.96-3.93.67-2.81-1.08-5.41-3.74-6.24-2.25-.71-5.01.83-5.54,3.14-.56,2.45.74,4.78,3.14,5.54l.24.07-1.99-1.16-.8-1.35v-2.39l.29-.62,1.61-1.61.62-.29h2.39l1.35.8,1.16,1.99c.28.87.04.41,0,.06-.03-.3-.06-.6-.09-.9-.07-.6-.14-1.2-.22-1.8-.2-1.52-.42-3.04-.7-4.55-.46-2.45-1.05-4.88-1.77-7.27s-1.53-4.59-2.46-6.82c-1-2.39-1.98-4.93-3.4-7.1-1.64-2.51-4.23-4.62-7.41-4.33s-5.41,2.27-7,4.86c-2.52,4.1-4.1,9.07-4.83,13.8-.88,5.78-.72,11.54.68,17.23.54,2.18,2.8,3.51,4.94,3.22s4.07-2.18,3.9-4.42c-1.47-19.81-5.06-39.38-8.68-58.9-.43-2.32-3.36-3.85-5.54-3.14-2.48.8-3.6,3.05-3.14,5.54h0Z"/>
      <path class="cls-3" d="m487.56,117.95c-4.29-.51-7.33,3.75-8.1,7.48-.85,4.1-1.02,8.48-.83,12.66s.64,8.52,1.83,12.52c1.33,4.51,4.69,7.59,9.45,7.9,4.33.28,8.06-2.16,10.52-5.53s3.2-7.31,3.57-11.17c.76-7.89-1.85-15.89-5.54-22.76-1.07-2-2.19-4.21-4.02-5.62-2.97-2.3-7.08-1.54-8.93,1.79-2.31,4.18-3.16,9.54-3.4,14.23-.12,2.35,2.16,4.6,4.5,4.5,2.54-.11,4.37-1.98,4.5-4.5.04-.77.11-1.53.18-2.29-.07.71,0-.06.02-.17.07-.45.15-.91.24-1.36.3-1.5.7-2.99,1.2-4.44.1-.29.2-.58.31-.87l.16-.43c.21-.53.23-.57.05-.13l-2.07.44c-.94.74-1.74.81-2.39.2.32,0,.33.5.01,0,.82,1.28,1.57,2.62,2.26,3.97.3.58.59,1.17.87,1.77.19.4.37.79.54,1.2-.08-.18-.28-.7.05.13.54,1.35,1.02,2.72,1.42,4.11s.69,2.79.93,4.21c.03.16.09.88.01.08.03.28.06.57.09.85.07.85.11,1.7.11,2.55,0,.64-.02,1.28-.07,1.92-.03.35-.06.71-.1,1.06.07-.8.02-.09-.01.08-.26,1.42-.62,2.76-1.08,4.13-.23.69.49-.89-.1.18-.12.23-.24.46-.37.69-.19.34-.4.66-.63.98.11-.16.55-.6-.02-.01-.18.18-.37.36-.54.55-.72.79.59-.23-.27.22-.2.1-.42.23-.6.34.85-.53.09-.04-.23.04-.08.02-1.15.17-.43.12s-.38-.02-.44-.02c-.94.06.16.07.18.06-.21.07-.77-.2-.97-.26.24.08.72.46.17.02-.69-.55.07.04.11.09l-.24-.24c.29.4.29.39,0-.04l-.19-.34c.18.48.18.47,0-.02-.4-1.24-.67-2.52-.91-3.8-.15-.79-.28-1.57-.39-2.37.09.65-.02-.14-.03-.23-.06-.56-.12-1.11-.17-1.67-.31-3.5-.3-7.04.03-10.54.04-.4.08-.8.13-1.19.17-1.52-.17.8.1-.71.1-.57.37-1.16.43-1.72s-.52.81,0,.03c.16-.23.76-.99,0-.1.47-.56-.13.08-.26.15-.68.23-.78.28-.32.15-.74.07-.85.12-.34.16,2.35.28,4.6-2.27,4.5-4.5-.12-2.68-1.99-4.2-4.5-4.5h0Z"/>
      <path class="cls-3" d="m506.59,118.94c1.25,10.34,2.51,20.68,3.76,31.01l8.84-1.2c-.08-.47-.16-.95-.23-1.42-.24-1.54.08.84-.09-.71-.1-.88-.18-1.75-.25-2.63-.13-1.84-.18-3.68-.14-5.52s.17-3.68.38-5.51c.02-.21.14-1.08.06-.47.07-.48.14-.95.22-1.42.14-.82.3-1.64.48-2.46.17-.73.36-1.44.58-2.15.12-.38.28-.76.39-1.15.14-.48-.28.52.09-.22s.74-1.41,1.17-2.08c.65-1.01-.55.52.28-.36.25-.27.52-.51.77-.78.56-.59-.33.16.09-.1.31-.19.61-.41.93-.59.4-.22.66-.33.08-.1.34-.13.68-.25,1.03-.34.32-.08,1.23-.1.21-.09.35,0,.71-.02,1.06-.02.89,0-.69-.31.2.05.33.13.68.22,1.01.36l-3.14-3.14c1.35,5.27,2.4,10.6,3.18,15.98.03.2.1.72.04.23.04.32.08.63.12.95.08.63.16,1.27.23,1.9.15,1.35.29,2.7.4,4.06.24,2.79.39,5.58.47,8.38.07,2.35,2.02,4.61,4.5,4.5s4.58-1.98,4.5-4.5c-.18-5.92-.72-11.81-1.55-17.67-.39-2.77-.86-5.53-1.4-8.27-.28-1.41-.58-2.82-.9-4.22-.35-1.52-.56-3.44-1.36-4.8-1.78-3.04-6.59-3.12-9.61-2.45-2.55.57-5.03,2.05-6.85,3.9-3.84,3.9-5.25,9.43-5.98,14.69-.96,6.9-.84,13.7.34,20.57.38,2.2,2.92,3.49,4.94,3.22s4.17-2.2,3.9-4.42c-1.25-10.34-2.51-20.68-3.76-31.01-.28-2.33-1.87-4.62-4.5-4.5-2.19.1-4.8,2-4.5,4.5h0Z"/>
      <path class="cls-3" d="m187.03,238.3c-10.26-.56-14.98,11.1-17,19.3-1.12,4.52-1.46,9.45.23,13.87.73,1.9,1.79,3.85,3.63,4.86,2.14,1.19,4.57.64,6.73-.2,4.68-1.82,8.67-4.86,11.67-8.88,1.16-1.55-1.45-3.04-2.59-1.51-2.11,2.83-4.92,5.1-8.07,6.69-1.56.79-3.72,1.9-5.51,1.56s-2.59-2.25-3.12-3.72c-1.32-3.69-1.07-7.69-.19-11.45s2.2-7.59,4.1-10.94c2.1-3.71,5.61-6.83,10.11-6.58,1.93.11,1.92-2.89,0-3h0Z"/>
      <path class="cls-3" d="m209.89,247.9c-3.29.49-6.05,2.8-7.66,5.64-1.91,3.37-2.11,7.37-1.95,11.16.07,1.69,0,3.78,1.57,4.85,1.49,1.02,3.3.43,4.61-.59s2.38-2.59,3.27-4.03c.95-1.54,1.71-3.2,2.3-4.91,1.31-3.83,1.59-7.91.9-11.89-.29-1.68-2.97-1.26-2.95.4.1,5.88,1.27,11.7,3.49,17.14.3.75,1,1.28,1.85,1.05.71-.2,1.36-1.09,1.05-1.85-2.12-5.21-3.29-10.72-3.39-16.35l-2.95.4c.94,5.41-.46,11.06-3.59,15.55-.64.92-1.43,2.16-2.53,2.55-.42.15-.41.08-.51-.39-.14-.68-.1-1.42-.13-2.11-.11-2.94-.1-6.14,1.22-8.84,1.23-2.53,3.37-4.46,6.2-4.89.8-.12,1.25-1.13,1.05-1.85-.24-.86-1.04-1.17-1.85-1.05h0Z"/>
      <path class="cls-3" d="m219.36,248.18c-.09,5.02-.17,10.04-.26,15.06-.01.81.7,1.5,1.5,1.5.9,0,1.39-.69,1.5-1.5.41-3.08,1.24-6.12,2.39-9.01.6-1.5,1.31-2.95,2.1-4.36.65-1.17,1.35-2.37,2.46-3.17.76-.54,1.76-.86,2.33.08s.45,2.23.44,3.26c-.02,3.52-.04,7.04-.05,10.56,0,1.93,2.99,1.93,3,0,.02-3.28.03-6.57.05-9.85.01-2.41.1-5.33-2.12-6.88-2.39-1.67-5.26-.15-6.91,1.8-1.88,2.21-3.12,5.07-4.19,7.74-1.26,3.16-2.05,6.44-2.5,9.8h3c.09-5.02.17-10.04.26-15.06.03-1.93-2.97-1.93-3,0h0Z"/>
      <path class="cls-3" d="m255.58,243.09c1.08,2.84.61,6.06,1.98,8.81,1.53,3.08,5.12,3.9,8.1,2.48,3.45-1.64,5.45-5.24,6.93-8.59,1.75-3.94,2.85-8.05,3.37-12.33h-3c.23,8.81.4,17.71-1.07,26.43-.59,3.52-1.11,8.24-3.81,10.86-1.15,1.12-3.05,2.01-4.66,1.4-1.11-.42-2.19-1.81-1.56-3.01.9-1.71-1.69-3.23-2.59-1.51-1.49,2.83.18,6.18,3.06,7.3,3.27,1.28,6.91-.59,8.88-3.23,2.26-3.03,2.92-7.15,3.55-10.79.73-4.23,1.11-8.51,1.27-12.8.18-4.89.08-9.78-.05-14.66-.05-1.98-2.77-1.87-3,0-.41,3.4-1.3,6.76-2.58,9.94-1.15,2.85-2.62,6.1-5.29,7.86-2.19,1.44-4.5.86-5.22-1.74-.66-2.38-.5-4.91-1.39-7.24-.68-1.79-3.58-1.01-2.89.8h0Z"/>
      <path class="cls-3" d="m282.32,231.96c-2.39,2.83-3.41,6.62-2.52,10.25.48,1.95,1.73,3.64,3.93,3.56,1.02-.04,1.95-.41,2.87-.8.8-.35,1.6-.7,2.39-1.08,2.98-1.46,6.04-3.71,6.7-7.18.61-3.2-.89-6.94-4.47-7.34-1.6-.18-3.26.46-4.45,1.52-1.38,1.23-1.73,2.98-1.02,4.66.32.75,1.42.91,2.05.54.77-.45.85-1.3.54-2.05.12.29,0-.12-.01-.16.02.07,0,.29.02.02.02-.4-.06.2,0-.03.02-.1.05-.2.08-.3-.09.27-.04.08,0,.01.07-.11.13-.22.21-.33-.05.07-.17.17.02,0,.1-.09.19-.19.3-.28.33-.28-.23.13.15-.1.08-.05.16-.1.24-.15.1-.06.21-.11.32-.16.24-.11-.32.1.11-.04.23-.07.46-.14.7-.18-.08.01-.25,0,.03,0,.14,0,.29,0,.43,0,.4,0-.21-.09.16.02.09.03.18.05.27.07.41.12-.12-.08.1.04.11.06.21.11.31.18-.15-.1.12.1.14.13.1.09.19.19.28.29.1.12.19.27.34.54.12.23.08.16.17.44.04.15.08.31.11.46,0,.03.04.29.01.08.03.27.03.54.02.81,0,.11-.01.22-.02.33.02-.2-.05.28-.06.34-.23,1.06-.66,1.83-1.44,2.63-.88.91-1.93,1.58-3.04,2.18s-2.3,1.17-3.49,1.61c-.42.15-1.08.38-1.41.26-.35-.13-.49-.63-.61-1.05-.73-2.59-.09-5.53,1.67-7.62.52-.62.61-1.51,0-2.12-.54-.54-1.6-.62-2.12,0h0Z"/>
      <path class="cls-3" d="m299.32,230.37c-.03,3.01.03,6.09,1.34,8.86,1.09,2.3,3.27,4.23,5.76,4.84s5.11-.23,6.85-2.13c1.64-1.78,2.52-4.12,3.17-6.41,1-3.52,1.79-7.11,2.39-10.72l-2.95-.4c-.24,5.17.11,10.33.99,15.42.14.8,1.12,1.25,1.85,1.05.85-.23,1.19-1.04,1.05-1.85-.83-4.83-1.11-9.73-.88-14.63.08-1.66-2.67-2.08-2.95-.4-.57,3.44-1.32,6.85-2.25,10.21-.61,2.2-1.36,4.86-3.29,6.29-2.11,1.56-4.78.47-6.29-1.38-1.94-2.39-1.82-5.87-1.79-8.77.02-1.93-2.98-1.93-3,0h0Z"/>
      <path class="cls-3" d="m352.36,218.88c-2.54-3.06-7.31-1.88-9.56.86-2.39,2.92-3.97,8.34-2.05,11.83.89,1.61,2.63,2.85,4.49,2.96,2.2.13,3.91-1.34,5.19-2.97,2.57-3.26,3.5-7.48,2.63-11.53-.3-1.39-2.66-1.47-2.89,0-.66,4.17-1.06,8.38-1.13,12.6s.67,8.63-.1,12.79c-.55,2.97-2.21,6.12-5.25,7.15-2.31.78-6.03-.41-6.06-3.27-.02-1.93-3.02-1.93-3,0,.04,3.74,3.49,6.26,6.99,6.52,3.8.28,7.16-2.42,8.84-5.63,2.22-4.22,1.72-9.03,1.59-13.62-.15-5.26.18-10.53,1-15.72h-2.89c.56,2.61.1,5.34-1.24,7.64-.6,1.04-1.5,2.4-2.65,2.89s-2.39-.27-2.95-1.31c-1.18-2.22.1-5.91,1.37-7.88,1.14-1.75,3.9-3.14,5.52-1.18,1.24,1.49,3.35-.65,2.12-2.12h0Z"/>
      <path class="cls-3" d="m357.51,216.56c.14,3.69-1.33,7.36-.54,11.04.59,2.74,2.51,5.5,5.33,6.23,3.13.81,6.32-1.12,8.37-3.36s3.18-4.86,3.87-7.67c.8-3.25.99-6.62,1.05-9.96.03-1.93-2.97-1.93-3,0-.08,4.69-.32,9.85-2.87,13.94-1.17,1.88-3.24,3.97-5.56,4.23s-3.76-2.02-4.25-3.96c-.4-1.58-.16-3.29.07-4.88.27-1.87.59-3.73.51-5.62s-3.07-1.93-3,0h0Z"/>
      <path class="cls-3" d="m381.62,222.55c4.44-.83,8.29-3.99,10.02-8.16.76-1.82,1.31-4.18.65-6.11-.85-2.5-3.38-2.74-5.34-1.32-3.73,2.7-5.31,7.08-5.89,11.49-.29,2.17-.37,4.37-.35,6.56,0,1.94.33,4.09,1.64,5.6,1.78,2.05,4.55,1.45,6.29-.31,2.26-2.28,4.21-4.95,6.28-7.4,1.24-1.47-.87-3.6-2.12-2.12-1.41,1.67-2.82,3.34-4.22,5.01-.64.76-2.34,3.58-3.62,3.12-1-.36-1.2-2.29-1.24-3.16-.08-1.65,0-3.34.11-4.99.22-3.12.81-6.36,2.58-9.01.37-.55,2.42-3.05,2.97-2.67.36.24.17,1.43.14,1.75-.09.79-.3,1.59-.59,2.33-1.35,3.42-4.53,5.83-8.1,6.5-1.9.35-1.09,3.25.8,2.89h0Z"/>
      <path class="cls-3" d="m407.97,201.88c-3.07-.5-5.99,1.18-7.25,4.02-.6,1.34-.79,2.88-.3,4.29.52,1.52,1.72,2.61,2.96,3.56s2.65,1.77,3.19,3.29c.57,1.6.32,3.59-.14,5.19-.39,1.38-1.22,2.96-2.74,3.31-.91.21-2.34.05-2.65-.99-.55-1.84-3.45-1.06-2.89.8.96,3.18,5,4.04,7.7,2.55,3.2-1.77,4.27-6.27,3.98-9.65-.16-1.89-.83-3.6-2.21-4.94-1.22-1.19-2.92-1.95-3.95-3.32-1.65-2.2.97-5.62,3.51-5.21,1.89.31,2.7-2.58.8-2.89h0Z"/>
      <path class="cls-3" d="m425.7,202.35c-2.19-1.84-5.35-.62-6.48,1.85-1.45,3.16,1.23,6.05,3,8.37,1.61,2.11,3.33,5.08,1.73,7.68-.56.9-1.5,1.47-2.57,1.34-.94-.11-1.73-.61-1.88-1.57-.13-.8-1.12-1.25-1.85-1.05-.85.23-1.18,1.04-1.05,1.85.45,2.77,3.6,4.11,6.13,3.69,3.04-.52,4.84-3.66,4.86-6.55.02-3.43-2.2-6.12-4.18-8.68-.71-.92-1.94-2.44-1.52-3.7.15-.45,1.16-1.55,1.7-1.09,1.47,1.23,3.6-.88,2.12-2.12h0Z"/>
      <path class="cls-3" d="m444.6,201.73c-2.24,5.86-1.34,12.86,2.45,17.9.91,1.2,2.18,2.1,3.74,1.63s2.41-2.1,3.25-3.29c2.07-2.93,3.86-6.04,5.39-9.29h-2.59c1.29,2.42,2.43,5.03,3.92,7.33s4.11,1.67,5.56-.32c2.89-3.96,4.15-9.27,3.87-14.11-.11-1.92-3.11-1.93-3,0,.21,3.7-.54,7.39-2.29,10.67-.34.64-.78,1.69-1.39,2.13-.26.11-.3.18-.11.2-.11-.16-.21-.33-.3-.51-.21-.38-.41-.77-.61-1.15-1.02-1.92-2.04-3.84-3.06-5.76-.5-.94-2.11-1.02-2.59,0-1.21,2.57-2.58,5.06-4.13,7.44-.72,1.11-1.44,2.27-2.29,3.28-.39.46-.3.55-.71.28-.44-.29-.79-1.08-1.05-1.52-2.55-4.27-2.93-9.48-1.16-14.11.69-1.81-2.21-2.59-2.89-.8h0Z"/>
      <path class="cls-3" d="m478.61,202.83c.15-.1.14-.11-.05-.02-.13.03-.26.04-.39,0-.27-.07-.33-.25-.11.03-.19-.24.07.16.09.22.05.09.04.09-.01-.02.03.09.06.18.09.28.03.18.04.19.02.02,0,.09.01.18.01.27,0,.29,0,.58,0,.86,0,.5-.01,1.01-.02,1.51-.02,2.16-.04,4.32-.06,6.47,0,.81.7,1.5,1.5,1.5s1.49-.69,1.5-1.5c.03-2.73.05-5.47.08-8.2.01-1.18-.14-2.3-.88-3.27s-2.16-1.58-3.28-.74c-.65.49-.98,1.3-.54,2.05.37.64,1.4,1.03,2.05.54h0Z"/>
      <path class="cls-3" d="m479.57,192.31c1.18-1.3,1.69-3.17,1.15-4.87-.12-.37-.35-.7-.69-.9s-.8-.27-1.16-.15-.71.34-.9.69-.27.77-.15,1.16c.06.18.1.37.13.56l-.05-.4c.04.31.04.62,0,.93l.05-.4c-.04.31-.13.61-.24.9l.15-.36c-.12.28-.26.53-.44.77l.23-.3c-.06.08-.13.16-.2.24-.27.29-.44.66-.44,1.06,0,.37.16.81.44,1.06s.66.46,1.06.44.79-.14,1.06-.44h0Z"/>
      <path class="cls-3" d="m492.72,182.45c.81,10.18.57,20.42-.72,30.55-.24,1.91,2.76,1.89,3,0,1.29-10.14,1.53-20.37.72-30.55-.15-1.91-3.15-1.93-3,0h0Z"/>
      <path class="cls-3" d="m490.08,204.95c.19-.5.57-1.04,1.09-1.54s.94-.78,1.69-1.19c1.47-.82,2.81-1.28,4.41-1.9,3.27-1.27,6.65-2.74,8.01-6.23.3-.75-.32-1.65-1.05-1.85-.85-.23-1.55.29-1.85,1.05.08-.21-.14.28-.16.33-.09.17-.2.34-.31.51-.1.14-.11.16-.03.05-.06.08-.12.15-.19.23-.13.15-.27.29-.41.43-.53.51-.95.78-1.69,1.19-1.47.82-2.81,1.28-4.41,1.9-3.27,1.27-6.65,2.75-8,6.24-.29.76.32,1.65,1.05,1.85.85.23,1.55-.29,1.85-1.05h0Z"/>
      <path class="cls-3" d="m503.96,177.6c1.35,2.28,1.37,4.9,1.22,7.48-.18,3.02-.46,6.04-.7,9.06-.48,6.13-.96,12.25-1.45,18.38-.14,1.79,2.4,1.89,2.95.4,2.11-5.8,5.48-11.06,9.79-15.47l-2.56-1.06c.31,4.25.62,8.5.93,12.75.14,1.91,3.14,1.93,3,0-.31-4.25-.62-8.5-.93-12.75-.09-1.24-1.6-2.04-2.56-1.06-4.68,4.8-8.27,10.5-10.56,16.8l2.95.4c.51-6.45,1.02-12.91,1.52-19.36.24-3.04.58-6.08.67-9.13.09-2.76-.25-5.53-1.68-7.94-.98-1.66-3.58-.15-2.59,1.51h0Z"/>
      <path class="cls-3" d="m521.85,194.9c.84,3.49,1.06,7.08.7,10.65-.08.81.75,1.5,1.5,1.5.88,0,1.42-.69,1.5-1.5.39-3.83.1-7.71-.8-11.45-.19-.79-1.08-1.26-1.85-1.05-.8.22-1.24,1.06-1.05,1.85h0Z"/>
      <path class="cls-3" d="m527.88,185.17l-.03-1.69c0-.39-.16-.78-.44-1.06-.14-.15-.3-.25-.48-.31-.18-.09-.37-.14-.58-.13-.39.02-.79.14-1.06.44s-.45.66-.44,1.06l.03,1.69c0,.39.16.78.44,1.06.14.15.3.25.48.31.18.09.37.14.58.13.39-.02.79-.14,1.06-.44s.45-.66.44-1.06h0Z"/>
      <path class="cls-3" d="m530.75,193.88l1.33,7.54c.27,1.53,2.5,1.32,2.89,0,.87-2.9,2.01-5.7,3.45-8.36s2.97-5.24,4.97-7.37c.64-.68,1.35-1.18,1.78-.09.48,1.2.38,2.68.41,3.94.06,3.31-.34,6.5-.81,9.76-.23,1.59.36,3.58,2.29,3.62,1.71.03,2.87-1.55,2.14-3.11-.34-.73-1.4-.92-2.05-.54-.75.44-.88,1.32-.54,2.05l.07.15-.2-.76c-.02-.3.53-.82.81-.76.11.02.33.32.41.27.02-.02.04-.53.05-.59.11-.86.28-1.71.4-2.56.22-1.65.37-3.3.42-4.96s.03-3.19-.07-4.77c-.08-1.22-.25-2.48-.89-3.55s-1.79-1.86-3.11-1.86c-1.47,0-2.7,1-3.59,2.07-1.88,2.25-3.52,4.72-4.93,7.29-1.62,2.97-2.93,6.11-3.9,9.35h2.89l-1.33-7.54c-.14-.8-1.12-1.25-1.85-1.05-.84.23-1.19,1.04-1.05,1.85h0Z"/>
      <path class="cls-3" d="m186.67,290.36c-1.06,11.31-2.11,22.61-3.17,33.92-.18,1.92,2.82,1.91,3,0,1.06-11.31,2.11-22.61,3.17-33.92.18-1.92-2.82-1.91-3,0h0Z"/>
      <path class="cls-3" d="m180.67,312.74c4.9-1.94,10-3.3,15.2-4.07.8-.12,1.24-1.13,1.05-1.85-.24-.86-1.04-1.17-1.85-1.05-5.21.77-10.31,2.13-15.2,4.07-.75.3-1.28,1-1.05,1.85.2.72,1.09,1.35,1.85,1.05h0Z"/>
      <path class="cls-3" d="m200.51,288.46c-.9,9.36-1.8,18.73-2.71,28.09-.14,1.47,2.16,2.06,2.8.76,1.48-3,2.95-6.01,4.43-9.01.72-1.47,1.44-2.93,2.16-4.4.57-1.17,1.13-2.49,2.2-3.3,1.18-.9,1.56.29,1.88,1.32.46,1.46.83,2.96,1.1,4.47.57,3.19.65,6.45.35,9.68-.18,1.92,2.82,1.91,3,0,.36-3.88.14-7.79-.67-11.61-.59-2.78-1.48-7.78-5.38-7.19-3.34.51-4.76,4.48-6.04,7.09-1.87,3.81-3.74,7.62-5.62,11.43l2.8.76c.9-9.36,1.8-18.73,2.71-28.09.19-1.92-2.82-1.91-3,0h0Z"/>
      <path class="cls-3" d="m224.34,305.77c5.29-1.33,12.02-3.68,12.95-9.94.82-5.54-5.34-10.07-10.15-6.69-2.32,1.63-3.8,4.32-4.86,6.87-1.14,2.74-1.74,5.7-1.76,8.67-.02,4.96,2.11,11.89,8.45,10.51,3.04-.66,5.97-2.87,8.11-5.05s3.82-4.9,4.87-7.84c.65-1.82-2.25-2.61-2.89-.8-1.37,3.86-4.12,7.18-7.61,9.32-1.63,1-4.02,2.36-5.78.93-1.33-1.08-1.81-3.04-2.01-4.66-.55-4.52.54-9.16,2.97-13,.96-1.52,2.52-3.43,4.55-3.18,1.74.22,3.12,1.93,3.21,3.62.12,2.21-1.52,4.23-3.24,5.42-2.26,1.56-4.97,2.24-7.59,2.9-1.87.47-1.08,3.36.8,2.89h0Z"/>
      <path class="cls-3" d="m296.27,280.03c-.2,7.33.34,14.64,1.51,21.88l4.34-1.2c-1.35-4.93-1.55-10.76.55-15.53.86-1.94,2.25-3.78,4.27-4.6,1.8-.72,3.75-.65,5.32.51.98.72,2.51.16,3.08-.81.67-1.14.18-2.36-.81-3.08-2.38-1.74-5.66-1.97-8.41-1.09-2.99.96-5.37,3.13-6.88,5.86-3.24,5.91-3.21,13.57-1.47,19.92.32,1.17,1.6,1.89,2.77,1.57,1.28-.35,1.77-1.56,1.57-2.77-1.11-6.84-1.54-13.77-1.35-20.69.08-2.9-4.42-2.89-4.5,0h0Z"/>
      <path class="cls-3" d="m343.65,273c2.32-1.86.37-5.56-2.25-5.73-2.89-.19-4.65,2.58-6.05,4.7-2.96,4.49-4.76,9.65-5.4,14.98-.31,2.59-.3,5.2.03,7.78.3,2.33,1.41,4.93,3.98,5.39,2.99.54,4.78-2.36,6.21-4.48,1.51-2.25,2.74-4.66,3.76-7.17,2.26-5.56,3.18-11.68,2.66-17.65l-4.42.6c1.38,6.22,3.42,12.24,6.01,18.06.49,1.11,2.11,1.37,3.08.81,1.14-.67,1.3-1.96.81-3.08-2.43-5.45-4.27-11.16-5.56-16.99-.54-2.44-4.64-1.95-4.42.6.66,7.53-1.11,15.07-5.11,21.5-.48.77-.99,1.53-1.53,2.26-.23.32-.49.61-.73.92-.01.02-.29.29-.29.27-.04-.08.37.1.46-.01,0-.01-.34-.9-.37-1-.2-.87-.23-1.79-.27-2.68-.16-3.73.39-7.41,1.59-10.94.65-1.91,1.5-3.74,2.52-5.48.56-.96,1.17-1.89,1.84-2.78.23-.3.58-.6.77-.92.08-.13.24-.18.22-.23-.18.02-.33-.06-.47-.22-.73-.23-.81-.79-.24-1.69-.95.76-.79,2.39,0,3.18.94.94,2.23.76,3.18,0h0Z"/>
      <path class="cls-3" d="m365.91,270.09c.43,4.17.68,8.35.74,12.55.04,2.47,3.84,3.14,4.42.6.99-4.29,2.43-8.47,4.39-12.42.93-1.87,1.96-3.69,3.09-5.45.83-1.29,1.81-2.89,3.31-3.48s3.22.25,4.3,1.35c1.29,1.31,1.83,3.2,2.25,4.95,1.1,4.6,1.89,9.29,2.82,13.93.57,2.84,4.91,1.64,4.34-1.2-.85-4.22-1.67-8.46-2.55-12.67-.79-3.79-2.17-7.59-5.61-9.73s-7.21-1.59-10,1.04-4.54,6.3-6.13,9.59c-1.99,4.12-3.53,8.43-4.55,12.89l4.42.6c-.07-4.19-.32-8.38-.74-12.55-.12-1.21-.95-2.25-2.25-2.25-1.12,0-2.37,1.03-2.25,2.25h0Z"/>
      <path class="cls-3" d="m422.76,253.46c-4.16-2.64-8.63.56-10.7,4.23s-3.99,7.97-3.96,12.24c.02,4.01,2.49,9.26,7.17,9.13s6.78-4.94,8.29-8.51c2.12-5.01,3.33-10.31,3.65-15.74h-4.5c.7,9.77.23,19.62-1.55,29.26-.43,2.34-.94,4.68-1.51,6.99-.4,1.62-.7,4.26-2.17,5.35-1.18.87-2.97.27-4.02-.53-1.57-1.2-2.47-3.14-3.35-4.85-1.33-2.58-5.21-.3-3.89,2.27,1.73,3.35,3.92,6.79,7.83,7.76,4.2,1.04,7.48-1.34,8.92-5.19s2.16-8.34,2.86-12.48c.74-4.42,1.25-8.89,1.51-13.37.29-5.07.23-10.15-.13-15.21-.21-2.88-4.32-2.91-4.5,0-.27,4.46-1.25,8.85-2.87,13.02-.58,1.49-3.17,8.66-5.75,6.22-2.74-2.6-1.23-7.37,0-10.29.81-1.94,3.27-8.39,6.4-6.4,2.45,1.56,4.71-2.34,2.27-3.89h0Z"/>
      <path class="cls-3" d="m446.06,264.55c6.07,1.17,12.29-1.36,15.97-6.3,1.79-2.39,2.97-5.63,2.47-8.64-.58-3.5-3.84-5.15-7.14-4.49-6.32,1.26-9.98,8.49-11.18,14.22-.63,3.02-.85,6.12-.77,9.2s.6,6.66,3.66,8.27c3.27,1.72,8.02.63,11.25-.7,3.57-1.46,6.53-3.75,8.85-6.82.73-.97.15-2.52-.81-3.08-1.15-.67-2.34-.17-3.08.81-2.81,3.72-7.57,6.01-12.2,6.08-.86.01-1.82.02-2.42-.69s-.65-1.78-.71-2.63c-.15-2.34-.1-4.74.19-7.07.53-4.37,2.14-9.17,5.71-12.01.79-.63,3.34-2.15,4.1-.76.81,1.47-.46,3.98-1.25,5.21-2.34,3.67-7.16,5.87-11.45,5.04-1.19-.23-2.43.34-2.77,1.57-.3,1.1.37,2.54,1.57,2.77h0Z"/>
      <path class="cls-3" d="m495.03,234.62c2.8-2.36,6.36-5.34,10.3-4.19,1.34.39,2.76,1.31,2.96,2.81.19,1.4-.73,2.62-1.64,3.57-2.41,2.52-5.5,4.29-7.19,7.46s-2.08,7.26-.73,10.74c.69,1.78,3.59,1.01,2.89-.8-1.19-3.07-.89-6.45.9-9.23,1.64-2.55,4.45-4.08,6.47-6.29,1.91-2.09,3.06-4.89,1.72-7.62s-4.46-3.93-7.26-3.91c-4.13.03-7.54,2.81-10.54,5.34-1.48,1.25.65,3.36,2.12,2.12h0Z"/>
      <path class="cls-3" d="m503.23,266.13c.01-.09.04-.18.07-.27l-.15.36c.04-.09.09-.16.14-.24l-.23.3c.07-.09.15-.17.24-.24l-.3.23c.11-.09.23-.15.36-.21l-.36.15c.13-.05.27-.09.41-.11l-.4.05c.13-.02.26-.02.39,0l-.4-.05c.11.02.21.04.31.08l-.36-.15c.09.04.17.09.25.15l-.3-.23c.07.06.14.12.2.2l-.23-.3c.05.07.1.15.14.24l-.15-.36c.05.11.08.23.1.35l-.05-.4c.01.12.01.25,0,.37l.05-.4c-.02.12-.05.24-.1.36l.15-.36c-.04.1-.1.2-.17.29l.23-.3c-.06.08-.14.15-.22.22l.3-.23c-.07.05-.14.09-.22.13l.76-.2c-.06,0-.12,0-.18-.01l.4.05c-.14-.02-.27-.06-.4-.11l.36.15c-.13-.06-.24-.13-.35-.21l.3.23c-.12-.09-.22-.2-.31-.32l.23.3c-.09-.12-.16-.25-.22-.38l.15.36c-.05-.13-.09-.25-.11-.39l.05.4c-.02-.12-.02-.24,0-.36l-.05.4c.02-.11.04-.22.09-.32l-.15.36v-.03c-.55.23-1.12.46-1.68.69.17.04.33.09.49.16l-.36-.15c.24.11.47.24.68.4l-.3-.23c.22.17.41.36.58.58l-.23-.3c.15.2.27.41.37.63l-.15-.36c.09.21.15.43.19.66.05.35.4.73.69.9.32.19.8.27,1.16.15s.71-.34.9-.69l.15-.36c.07-.27.07-.53,0-.8-.06-.42-.23-.82-.42-1.19s-.45-.71-.74-1.01-.63-.57-.99-.78-.79-.39-1.2-.49c-.33-.08-.66-.06-.98.08-.27.11-.59.33-.72.61-.08.17-.16.35-.21.53-.05.2-.08.42-.09.61-.02.27.02.55.08.81s.17.53.3.77.3.46.47.66.41.38.64.53.5.26.76.35c.07.02.14.04.22.05.2.03.41.07.61.07.54,0,.97-.28,1.36-.62.05-.04.1-.09.14-.14.12-.14.24-.29.34-.45.13-.22.24-.47.3-.73s.1-.53.09-.8-.04-.53-.12-.77c-.21-.63-.58-1.13-1.14-1.49-.43-.28-1.03-.43-1.54-.39-.65.05-1.24.25-1.76.65-.28.22-.48.43-.68.74-.11.17-.18.37-.25.55-.03.08-.05.16-.06.24-.06.2-.07.4-.03.6,0,.2.07.39.18.56.18.31.54.61.9.69.38.09.81.07,1.16-.15.31-.2.63-.52.69-.9h0Z"/>
      <path class="cls-10" d="m307.86,320.54c-2.32.3-3.92,2.33-4.07,4.61s1.64,4.34,3.88,4.86c2.36.55,4.74-.4,6.02-2.47s1.3-4.89-.07-6.9c-.81-1.18-2.13-2.15-3.62-2.04-1.37.1-2.77,1.06-2.98,2.49-.06.4.1.81.52.92.35.1.86-.12.92-.52.12-.8.8-1.33,1.6-1.39.9-.07,1.73.55,2.23,1.25,1.04,1.45,1.13,3.49.32,5.06s-2.35,2.44-4.1,2.24c-1.51-.18-3.01-1.22-3.21-2.81s.86-3.57,2.56-3.8c.4-.05.75-.31.75-.75,0-.36-.35-.8-.75-.75h0Z"/>
      <path class="cls-10" d="m346.66,313.32l1.74,11.56c.06.4.56.62.92.52.43-.11.58-.52.52-.92l-1.74-11.56c-.06-.4-.56-.62-.92-.52-.43.11-.58.52-.52.92h0Z"/>
      <path class="cls-10" d="m388.77,307.86c.02-.79.9-1.15,1.59-1.16,1.02-.01,1.7.7,1.83,1.7.35,2.71-2.63,4.12-4.07,5.92-.86,1.07-1.27,2.35-.54,3.62.12.21.39.4.65.37,3.17-.34,6.35-.69,9.52-1.03.41-.04.75-.31.75-.75,0-.37-.35-.79-.75-.75-3.17.34-6.35.69-9.52,1.03l.65.37c-.65-1.13.64-2.24,1.38-2.94,1.08-1.02,2.32-1.92,2.95-3.32s.74-3.03-.11-4.32c-.73-1.1-2-1.55-3.28-1.36-1.36.2-2.51,1.18-2.55,2.61-.03.97,1.47.96,1.5,0h0Z"/>
      <path class="cls-10" d="m422.54,301.25c2.01-1.34,5.56-3.51,7.4-.72.65.98.28,2.06-.73,2.59s-2.26.54-3.38.52v1.5c2-.21,6.46-.3,6.77,2.51.18,1.62-1.51,2.82-2.94,3.04-2.03.31-4.06-.82-5.78-1.74-.85-.45-1.61.84-.76,1.3,1.76.94,3.61,1.88,5.64,1.97,1.63.08,3.32-.57,4.38-1.83.99-1.17,1.26-2.75.58-4.15-.58-1.19-1.81-1.89-3.04-2.26-1.55-.47-3.25-.51-4.85-.34-.94.1-.99,1.48,0,1.5,1.49.03,3.2-.06,4.47-.93,1.37-.93,1.86-2.65,1.1-4.14s-2.46-2.44-4.12-2.4c-2.05.05-3.85,1.17-5.5,2.28-.8.53-.05,1.83.76,1.3h0Z"/>
      <path class="cls-10" d="m461.8,291.82c-1.08,1.51-1.04,3.58-.17,5.18.94,1.73,2.8,2.61,4.73,2.34,2.09-.29,3.93-1.76,4.83-3.65,1.08-2.25,1.04-4.77.68-7.19-.13-.84-1.51-.64-1.47.2.2,5.07.68,10.13,1.41,15.15.14.95,1.59.55,1.45-.4-.72-4.89-1.17-9.81-1.36-14.75l-1.47.2c.51,3.32.04,7.87-3.85,8.87-1.43.37-2.86-.16-3.6-1.46-.67-1.18-.67-2.63.13-3.74.56-.79-.74-1.54-1.3-.76h0Z"/>
      <path class="cls-10" d="m287.04,274.96c-5.21,1.13-10.41,2.25-15.62,3.38-.43.09-.58.54-.52.92,1.26,8.51,2.62,17.01,4.09,25.49.3,1.75.36,3.85,1.1,5.49.61,1.36,1.89,1.76,3.3,1.66,2.29-.17,4.58-.65,6.84-1.05,2.72-.48,5.48-.93,8.15-1.64.93-.25.54-1.7-.4-1.45-2.78.74-5.64,1.2-8.47,1.7-1.44.25-2.89.49-4.34.71-.59.09-1.18.19-1.78.23-1.37.1-1.95-.47-2.2-1.77-1.93-9.85-3.36-19.84-4.84-29.77l-.52.92c5.21-1.13,10.41-2.25,15.62-3.38.94-.2.54-1.65-.4-1.45h0Z"/>
      <path class="cls-10" d="m460.2,238.46c6.25-1.25,12.6-1.97,18.85-3.22l-.92-.52c1.42,10.08,4.69,19.75,6.81,29.68.26,1.23.51,2.47.73,3.71.16.88,1.01,3.46.13,4.07-.58.41-1.88.45-2.57.6-.98.21-1.96.4-2.94.6-3.96.77-7.95,1.42-11.87,2.38-.94.23-.54,1.68.4,1.45,3.34-.82,6.74-1.41,10.13-2.05,1.68-.32,3.36-.64,5.04-1,1.12-.24,2.88-.33,3.5-1.47.29-.54.24-1.14.16-1.73-.14-1.09-.32-2.17-.51-3.25-.39-2.18-.85-4.34-1.35-6.49-.98-4.19-2.12-8.35-3.18-12.52-1.21-4.75-2.32-9.52-3.01-14.37-.06-.42-.57-.59-.92-.52-6.25,1.25-12.6,1.97-18.85,3.22-.95.19-.55,1.64.4,1.45h0Z"/>
    </g>
  </g>
</svg>